<svg xmlns="http://www.w3.org/2000/svg" viewBox="0 0 64 64">
  <!-- Sankofa Bird - stylized Adinkra symbol -->
  <defs>
    <linearGradient id="g" x1="0%" y1="0%" x2="100%" y2="100%">
      <stop offset="0%" style="stop-color:#C4841D;stop-opacity:1" />
      <stop offset="100%" style="stop-color:#E8A849;stop-opacity:1" />
    </linearGradient>
  </defs>
  <circle cx="32" cy="32" r="30" fill="#121212"/>
  <!-- Stylized Sankofa bird looking back -->
  <path d="M20 42 C20 42 18 30 24 24 C28 20 34 20 36 24 C38 28 36 32 32 34 L38 34 C40 34 42 32 42 28 C42 22 38 18 32 16 C24 14 16 18 14 26 C12 34 16 42 20 42Z" fill="url(#g)"/>
  <circle cx="30" cy="24" r="2" fill="#121212"/>
  <!-- Egg (knowledge carried forward) -->
  <ellipse cx="22" cy="40" rx="4" ry="5" fill="url(#g)"/>
</svg>
