<?xml version="1.0" encoding="UTF-8"?>
<!-- Sankofa Expeditions — Primary Logo — Black Dominant -->
<!-- Generated by Sankofa Logo agent from vtracer paths -->
<svg version="1.1" xmlns="http://www.w3.org/2000/svg" width="4000" height="3953" viewBox="0 0 4000 3953">
  <!-- Background removed for transparent use -->
  
  <!-- Globe landmasses (light gray layer) -->
  <path d="M0 0 C3.917 -0.03 7.833 -0.047 11.75 -0.062 C12.842 -0.071 13.934 -0.079 15.059 -0.088 C22.425 -0.11 29.671 0.265 37 1 C37 1.33 37 1.66 37 2 C24.64 2.173 12.342 1.636 0 1 C0 0.67 0 0.34 0 0 Z " fill="#ffffff" transform="translate(2112,591)"/><path d="M0 0 C14.19 0 28.38 0 43 0 C43 0.33 43 0.66 43 1 C28.81 1 14.62 1 0 1 C0 0.67 0 0.34 0 0 Z " fill="#ffffff" transform="translate(1894,1125)"/><path d="M0 0 C3.863 1.585 6.289 4.06 9.203 7.008 C9.686 7.493 10.168 7.979 10.666 8.479 C12.199 10.023 13.724 11.574 15.25 13.125 C16.291 14.176 17.333 15.227 18.375 16.277 C20.922 18.846 23.463 21.421 26 24 C25.67 24.66 25.34 25.32 25 26 C21.436 22.461 17.876 18.919 14.319 15.374 C13.107 14.167 11.895 12.961 10.681 11.757 C8.941 10.029 7.205 8.298 5.469 6.566 C4.922 6.025 4.375 5.483 3.812 4.925 C2.522 3.635 1.258 2.32 0 1 C0 0.67 0 0.34 0 0 Z " fill="#ffffff" transform="translate(2232,1234)"/><path d="M0 0 C23.582 -0.413 23.582 -0.413 35 2 C35 2.33 35 2.66 35 3 C23.45 2.34 11.9 1.68 0 1 C0 0.67 0 0.34 0 0 Z " fill="#ffffff" transform="translate(1807,1303)"/><path d="M0 0 C0.33 0 0.66 0 1 0 C1.055 1.032 1.111 2.064 1.168 3.127 C1.378 7.043 1.589 10.958 1.8 14.874 C1.89 16.553 1.98 18.231 2.07 19.909 C2.68 31.275 3.32 42.638 4 54 C3.67 54 3.34 54 3 54 C0.332 35.971 -0.156 18.202 0 0 Z " fill="#ffffff" transform="translate(1694,1430)"/><path d="M0 0 C11.995 14.685 21.9 30.996 32 47 C32.963 48.52 33.927 50.039 34.891 51.559 C39.182 58.35 43.352 65.208 47.438 72.125 C47.851 72.824 48.265 73.524 48.691 74.244 C50.948 78.096 53.052 81.979 55 86 C54.01 86 53.02 86 52 86 C52.103 87.155 52.206 88.31 52.312 89.5 C52.312 96.993 49.483 104.024 47 111 C46.808 111.547 46.808 111.547 45.836 114.312 C40.831 127.386 31.93 139.191 19.02 145.211 C18.353 145.471 17.687 145.732 17 146 C16.132 146.356 15.265 146.712 14.371 147.078 C4.917 149.663 -8.142 149.696 -16.98 145.254 C-20.549 143.039 -23.828 140.762 -27 138 C-27.731 137.375 -28.462 136.75 -29.215 136.105 C-37.673 128.312 -42.634 118.526 -47 108 C-47.33 108.33 -47.33 108.33 -49 110 C-48.305 106.056 -47.201 102.386 -45.918 98.594 C-45.708 97.969 -45.498 97.345 -45.282 96.701 C-44.826 95.346 -44.368 93.991 -43.91 92.636 C-42.658 88.933 -41.417 85.226 -40.176 81.52 C-39.916 80.743 -39.656 79.967 -39.388 79.167 C-36.498 70.524 -33.682 61.858 -30.875 53.188 C-30.625 52.417 -30.375 51.646 -30.118 50.852 C-27.498 42.766 -24.893 34.676 -22.312 26.578 C-21.895 25.269 -21.477 23.96 -21.059 22.652 C-20.291 20.244 -19.527 17.835 -18.765 15.425 C-18.428 14.365 -18.09 13.306 -17.742 12.215 C-17.597 11.757 -17.597 11.757 -16.863 9.437 C-16.063 7.177 -15.125 5.114 -14 3 C-14 3.66 -14 4.32 -14 5 C-13.448 4.683 -12.897 4.366 -12.328 4.039 C-9.715 2.873 -7.594 2.6 -4.75 2.375 C-3.858 2.3 -2.966 2.225 -2.047 2.148 C-1.371 2.099 -0.696 2.05 0 2 C0 1.34 0 0.68 0 0 Z " fill="#ffffff" transform="translate(2089,1439)"/><path d="M0 0 C0.33 0 0.66 0 1 0 C1.131 23.024 0.859 45.991 0 69 C-0.33 69 -0.66 69 -1 69 C-1.142 45.978 -0.79 23.008 0 0 Z " fill="#ffffff" transform="translate(2032,1472)"/><path d="M0 0 C0.33 0 0.66 0 1 0 C1.799 9.527 2.148 18.947 2.133 28.508 C2.133 29.849 2.134 31.19 2.136 32.532 C2.137 35.317 2.135 38.101 2.13 40.886 C2.125 44.42 2.128 47.954 2.134 51.488 C2.138 54.249 2.136 57.01 2.134 59.771 C2.133 61.696 2.136 63.622 2.139 65.547 C2.119 73.08 1.755 80.504 1 88 C0.67 88 0.34 88 0 88 C0 58.96 0 29.92 0 0 Z " fill="#ffffff" transform="translate(2510,1502)"/><path d="M0 0 C0.33 0 0.66 0 1 0 C1.339 4.458 1.67 8.916 2 13.375 C2.095 14.627 2.191 15.878 2.289 17.168 C2.799 24.128 3.147 31.021 3 38 C2.67 38 2.34 38 2 38 C0.756 25.309 -0.363 12.76 0 0 Z " fill="#ffffff" transform="translate(1506,1640)"/><path d="M0 0 C0.33 0 0.66 0 1 0 C1 18.81 1 37.62 1 57 C0.67 57 0.34 57 0 57 C0 38.19 0 19.38 0 0 Z " fill="#ffffff" transform="translate(2450,1648)"/><path d="M0 0 C14.85 0 29.7 0 45 0 C45 0.33 45 0.66 45 1 C30.15 1 15.3 1 0 1 C0 0.67 0 0.34 0 0 Z " fill="#ffffff" transform="translate(2013,1730)"/><path d="M0 0 C17.16 0 34.32 0 52 0 C52 0.33 52 0.66 52 1 C34.84 1 17.68 1 0 1 C0 0.67 0 0.34 0 0 Z " fill="#ffffff" transform="translate(1977,1802)"/><path d="M0 0 C13.86 0 27.72 0 42 0 C42 0.33 42 0.66 42 1 C28.14 1 14.28 1 0 1 C0 0.67 0 0.34 0 0 Z " fill="#ffffff" transform="translate(1973,1884)"/><path d="M0 0 C20.46 0 40.92 0 62 0 C62 0.33 62 0.66 62 1 C41.405 2.526 20.586 2.79 0 1 C0 0.67 0 0.34 0 0 Z " fill="#ffffff" transform="translate(1991,1900)"/><path d="M0 0 C21.12 0 42.24 0 64 0 C64 0.33 64 0.66 64 1 C42.738 2.594 21.258 2.723 0 1 C0 0.67 0 0.34 0 0 Z " fill="#ffffff" transform="translate(1993,1982)"/><path d="M0 0 C-1.65 0.33 -3.3 0.66 -5 1 C-4.97 1.648 -4.939 2.297 -4.908 2.965 C-4.34 15.317 -3.822 27.634 -4 40 C-4.33 40 -4.66 40 -5 40 C-6.355 26.692 -6.098 13.359 -6 0 C-3.509 -1.245 -2.589 -0.777 0 0 Z " fill="#ffffff" transform="translate(2131,2100)"/><path d="M0 0 C2.062 0.438 2.062 0.438 4 1 C3.01 1.33 2.02 1.66 1 2 C-0.178 11.656 -1.289 21.296 -2 31 C-2.33 31 -2.66 31 -3 31 C-3.235 23.485 -2.94 16.209 -2.062 8.75 C-1.976 7.999 -1.889 7.248 -1.799 6.475 C-1.132 1.132 -1.132 1.132 0 0 Z " fill="#ffffff" transform="translate(1943,2110)"/><path d="M0 0 C12.977 -0.209 25.915 0.43 38.875 1 C41.124 1.097 43.372 1.193 45.621 1.289 C51.081 1.523 56.54 1.76 62 2 C62 2.33 62 2.66 62 3 C41.228 3.28 20.711 2.615 0 1 C0 0.67 0 0.34 0 0 Z " fill="#ffffff" transform="translate(1947,2111)"/><path d="M0 0 C0.33 0 0.66 0 1 0 C2.051 13.406 2.531 26.601 1 40 C0.67 40 0.34 40 0 40 C0 26.8 0 13.6 0 0 Z " fill="#ffffff" transform="translate(2058,2154)"/><path d="M0 0 C0.33 0 0.66 0 1 0 C1 17.82 1 35.64 1 54 C0.67 54 0.34 54 0 54 C-0.887 49.437 -1.129 45.114 -1.133 40.469 C-1.134 39.756 -1.135 39.043 -1.136 38.308 C-1.136 36.802 -1.135 35.296 -1.13 33.79 C-1.125 31.534 -1.13 29.279 -1.137 27.023 C-1.14 17.968 -0.791 9.027 0 0 Z " fill="#ffffff" transform="translate(1938,2156)"/><path d="M0 0 C2.648 0.003 5.295 -0.02 7.944 -0.046 C20.708 -0.093 31.81 1.412 43.719 6.316 C43.719 6.646 43.719 6.976 43.719 7.316 C42.461 7.378 41.203 7.439 39.906 7.503 C36.101 7.921 33.261 8.86 29.844 10.566 C22.529 14.12 14.78 15.866 6.912 17.772 C5.094 18.223 3.288 18.718 1.485 19.226 C-6.827 21.461 -15.188 21.949 -23.739 22.542 C-31.915 23.132 -39.875 24.235 -47.929 25.73 C-51.281 26.316 -51.281 26.316 -54.281 26.316 C-54.611 28.296 -54.941 30.276 -55.281 32.316 C-55.611 32.316 -55.941 32.316 -56.281 32.316 C-55.6 24.146 -52.347 16.997 -46.281 11.316 C-32.46 0.487 -16.929 -0.042 0 0 Z " fill="#ffffff" transform="translate(1981.281005859375,2315.684326171875)"/><path d="M0 0 C5.389 1.796 8.032 7.359 11 12 C14.462 19.006 15.194 25.884 15.188 33.562 C15.188 34.354 15.189 35.146 15.189 35.962 C15.132 42.447 14.393 48.659 13 55 C12.148 54.95 11.296 54.899 10.418 54.848 C6.565 55.019 3.872 55.978 0.312 57.438 C-0.246 57.664 -0.246 57.664 -3.074 58.809 C-4.04 59.202 -5.005 59.595 -6 60 C-6.495 60.165 -6.495 60.165 -9 61 C-9.054 63.521 -9.094 66.041 -9.125 68.562 C-9.142 69.267 -9.159 69.971 -9.176 70.697 C-9.229 76.479 -8.211 81.396 -5.75 86.688 C-5 89 -5 89 -5.953 91.145 C-6.126 91.451 -6.126 91.451 -7 93 C-7.822 92.942 -8.645 92.884 -9.492 92.824 C-17.506 92.5 -23.388 93.254 -30 98 C-33.65 101.982 -33.672 106.804 -34 112 C-23.483 114.337 -10.612 113.985 -0.918 108.91 C0.425 107.992 1.72 107.004 3 106 C3.66 106 4.32 106 5 106 C5.113 105.557 5.113 105.557 5.688 103.312 C7.179 99.549 9.094 97.757 12 95 C12.33 94.01 12.66 93.02 13 92 C12.01 91.67 11.02 91.34 10 91 C10.496 90.588 10.993 90.175 11.504 89.75 C15.872 86.036 19.764 82.183 23.457 77.797 C24.903 76.113 26.41 74.547 28 73 C28 74.32 28 75.64 28 77 C30.286 79.365 32.963 80.778 36 82 C41.858 82 46.657 80.343 52 78 C53.26 75.479 52.919 74.146 52.562 71.375 C52.461 70.558 52.359 69.74 52.254 68.898 C52.17 68.272 52.086 67.645 52 67 C49 66 49 66 46.938 66.438 C44.088 66.983 41.878 66.908 39 66.75 C34.523 66.67 34.523 66.67 32.242 68.109 C30.875 69.5 30.875 69.5 29 72 C29.971 69.169 30.921 67.095 32.836 64.773 C44.296 50.086 49.196 30.053 52 12 C53.32 12 54.64 12 56 12 C56.33 12.99 56.66 13.98 57 15 C58.323 15.686 59.659 16.35 61 17 C66.812 22.179 71.977 28.065 77 34 C77.386 34.447 77.386 34.447 79.34 36.711 C79.758 37.202 79.758 37.202 81.875 39.688 C82.636 40.578 83.396 41.469 84.18 42.387 C91.614 51.703 97.294 60.886 101.777 71.887 C103.13 75.204 104.536 78.498 105.934 81.797 C106.068 82.116 106.068 82.116 106.75 83.734 C109.53 90.311 112.623 96.678 115.947 102.993 C117.173 105.329 118.375 107.676 119.578 110.023 C149.1 167.367 149.1 167.367 163 172 C162.628 171.173 162.256 170.346 161.872 169.493 C158.215 161.191 155.118 152.842 152.385 144.194 C151.744 142.169 151.092 140.148 150.438 138.127 C147.114 127.788 144.652 118.637 144.75 107.75 C144.742 106.879 144.735 106.007 144.727 105.109 C144.728 104.687 144.728 104.687 144.734 102.547 C144.737 101.792 144.739 101.038 144.741 100.261 C145.047 97.59 145.914 95.447 147 93 C147.576 93.266 148.153 93.533 148.746 93.807 C159.742 98.845 170.735 103.521 182.312 107.062 C182.774 107.206 182.774 107.206 185.108 107.93 C191.057 109.681 196.813 110.606 203 111 C202.463 110.559 201.926 110.118 201.373 109.664 C197.531 106.508 197.531 106.508 196 105 C196 104.34 196 103.68 196 103 C195.444 102.773 194.889 102.546 194.316 102.312 C191.335 100.623 189.313 98.465 186.938 96 C184.345 93.318 182.108 91.072 179 89 C179 88.34 179 87.68 179 87 C178.736 86.898 178.736 86.898 177.401 86.385 C173.94 84.389 171.386 81.671 168.582 78.848 C167.965 78.233 167.349 77.618 166.713 76.985 C165.407 75.68 164.104 74.373 162.802 73.063 C160.844 71.094 158.875 69.135 156.904 67.178 C149.814 60.095 143.147 52.929 137 45 C136.538 44.423 136.076 43.846 135.6 43.252 C128.016 33.77 119.354 22.284 117.562 10 C118.042 6.709 118.977 4.63 121.289 2.203 C126.98 -1.799 134.653 0.041 141.062 1.125 C171.135 6.784 212.508 19.934 231 46 C238.528 58.577 236.786 70.872 233.5 84.438 C232.665 87.762 231.809 91.08 230.941 94.396 C229.254 100.858 227.626 107.335 226 113.812 C225.915 114.149 225.915 114.149 225.487 115.854 C221.979 129.83 218.748 143.852 216 158 C215.91 158.459 215.91 158.459 215.457 160.779 C212.5 176.482 212.675 192.084 213 208 C213.66 208 214.32 208 215 208 C215.11 207.394 215.219 206.788 215.332 206.164 C216.504 199.969 218.083 194.005 220 188 C224.543 196.884 227.122 205.511 228.457 215.379 C228.536 215.956 228.536 215.956 228.938 218.875 C229.07 219.945 229.203 221.015 229.34 222.117 C230.036 225.159 231.046 226.626 233 229 C233 229.66 233 230.32 233 231 C233.599 231.103 234.199 231.206 234.816 231.312 C240.804 233.198 244.154 240.692 246.922 245.887 C247.278 246.584 247.633 247.281 248 248 C248.364 248.63 248.727 249.261 249.102 249.91 C250.237 252.55 250.421 254.89 250.625 257.75 C250.7 258.735 250.775 259.72 250.852 260.734 C250.901 261.482 250.95 262.23 251 263 C266.317 263.083 266.317 263.083 270.704 259.678 C273.822 256.178 275.916 252.173 278 248 C278.66 247.01 279.32 246.02 280 245 C280.427 241.932 280.324 238.845 280.312 235.75 C280.329 234.916 280.345 234.082 280.361 233.223 C280.367 226.589 279.378 221.65 274.812 216.562 C274.348 216.14 274.348 216.14 272 214 C262.525 204.94 262.525 204.94 260 200 C260.25 197.125 260.25 197.125 261 195 C261.66 195 262.32 195 263 195 C263.686 193.677 264.348 192.341 265 191 C265.196 190.598 265.196 190.598 266.188 188.562 C267.163 185.485 267.186 184.004 266 181 C261.562 177.672 256.731 176.057 251.312 175.141 C250.449 174.994 249.585 174.847 248.695 174.695 C246.901 174.399 245.104 174.118 243.305 173.852 C236.956 172.733 234.748 171.196 231 166 C230.01 166 229.02 166 228 166 C230.095 158.802 232.416 151.704 234.871 144.621 C235.053 144.095 235.053 144.095 235.973 141.433 C236.737 139.223 237.503 137.014 238.27 134.805 C239.435 131.445 240.594 128.083 241.752 124.721 C242.5 122.562 243.248 120.404 243.996 118.246 C244.167 117.749 244.167 117.749 245.032 115.234 C247.082 109.35 249.365 103.647 252 98 C252.99 98.33 253.98 98.66 255 99 C256.393 105.721 257.246 112.294 257.631 119.145 C258.906 141.372 266.621 158.18 282.984 173.402 C290.03 179.471 297.053 183.507 306 186 C305.408 183.892 304.801 181.789 304.188 179.688 C303.851 178.516 303.515 177.344 303.168 176.137 C302.064 173.172 301.291 172.028 299 170 C299 169.34 299 168.68 299 168 C298.419 167.783 297.837 167.567 297.238 167.344 C286.431 160.855 281.17 139.963 278.062 128.562 C274.177 108.491 279.411 89.482 284 70 C287.651 71.732 290.458 73.898 293.562 76.5 C296.329 78.812 298.999 80.999 302 83 C302 83.66 302 84.32 302 85 C302.572 85.258 303.145 85.516 303.734 85.781 C306.211 87.114 308.134 88.651 310.25 90.5 C310.603 90.804 310.603 90.804 312.391 92.344 C314 94 314 94 314 96 C314.558 96.238 315.117 96.477 315.692 96.722 C320.745 99.52 324.669 104.085 328.75 108.125 C329.249 108.619 329.749 109.113 330.263 109.621 C338.281 117.624 344.105 125.289 348 136 C348.418 137.014 348.835 138.029 349.266 139.074 C355.37 154.485 356.542 172.326 350.234 187.89 C339.939 211.527 321.472 233.573 297.785 244.48 C296.701 244.982 295.617 245.483 294.5 246 C293.5 246.433 292.499 246.866 291.469 247.312 C288.264 249.503 287.816 251.268 287 255 C287 255.99 287 256.98 287 258 C315.405 253.694 338.361 239.501 359.777 220.766 C362 219 362 219 364 219 C368.308 247.837 369.132 277.186 369.25 306.312 C369.259 307.59 369.269 308.867 369.278 310.184 C369.237 322.278 368.121 334.139 364.188 345.625 C363.928 346.416 363.668 347.207 363.4 348.023 C361.156 354.767 358.672 361.414 356 368 C355.67 367.34 355.34 366.68 355 366 C353.783 366.103 352.566 366.206 351.312 366.312 C347.768 366.319 347.22 366.189 344.375 363.75 C343.591 362.842 342.807 361.935 342 361 C337.263 357.124 333.057 355.743 327 356 C324 357 324 357 322 359 C320.045 364.635 321.649 368.546 323.895 373.766 C325 376 325 376 327 379 C330.625 379.188 330.625 379.188 334 379 C334.66 380.98 335.32 382.96 336 385 C339.3 385.33 342.6 385.66 346 386 C344.315 390.827 341.732 394.984 339.062 399.312 C338.577 400.103 338.091 400.893 337.59 401.708 C330.628 412.935 323.082 423.715 315.094 434.234 C313.135 436.822 311.216 439.433 309.312 442.062 C305.692 447.06 302.037 452.033 298.375 457 C297.775 457.813 297.176 458.627 296.558 459.465 C293.521 463.584 290.482 467.701 287.441 471.816 C281.552 479.791 275.686 487.781 269.875 495.812 C269.343 496.547 268.81 497.282 268.261 498.039 C265.422 501.974 262.662 505.943 260 510 C260 507 260 507 261 505 C260.237 505.165 259.474 505.33 258.688 505.5 C253.8 506.163 248.926 506.285 244 506 C242.449 504.449 242.873 502.957 242.859 500.801 C242.61 486.965 241.681 474.531 232.234 463.551 C231 462 231 462 230 459 C228.692 458.285 227.354 457.623 226 457 C224.815 456.085 223.662 455.127 222.539 454.137 C221.902 453.579 221.265 453.022 220.609 452.447 C219.955 451.867 219.3 451.286 218.625 450.688 C217.326 449.545 216.027 448.403 214.727 447.262 C214.1 446.71 213.474 446.157 212.829 445.588 C211.128 444.111 209.401 442.678 207.656 441.254 C202.709 437.056 200.433 431.892 197.949 426.051 C196.9 423.783 195.557 421.946 194 420 C194 419.34 194 418.68 194 418 C193.34 418 192.68 418 192 418 C190.642 416.692 189.315 415.351 188 414 C187.753 413.811 187.753 413.811 186.5 412.855 C173.471 402.873 165.795 384.996 159.145 370.479 C156.237 364.251 152.985 358.597 149 353 C148.359 352.072 147.719 351.144 147.059 350.188 C146.791 349.827 146.791 349.827 145.438 348 C145.169 347.629 145.169 347.629 143.809 345.75 C140.604 342.649 137.305 343 133 343 C134.969 348.856 137.381 353.727 141 358.75 C144.696 364.087 146.273 368.855 147.809 375.109 C149.099 379.795 151.321 383.988 153.5 388.312 C158.283 397.914 162 408.143 162 419 C162.722 419.247 163.444 419.495 164.188 419.75 C167.276 421.123 169.51 422.724 172 425 C172 425.66 172 426.32 172 427 C172.577 427.186 173.155 427.371 173.75 427.562 C178.406 430.537 180.661 437.243 183.145 442.102 C189.55 454.548 196.53 465.468 208.254 473.555 C215.105 478.345 218.787 484.281 223.004 491.334 C226.757 497.61 230.131 502.598 236 507 C240.921 510.716 244.256 514.5 247 520 C247 520.66 247 521.32 247 522 C248.32 521.67 249.64 521.34 251 521 C251 521.66 251 522.32 251 523 C251.66 523.33 252.32 523.66 253 524 C252.34 524.33 251.68 524.66 251 525 C251.539 530.277 252.773 534.256 255 539 C263.033 538.04 270.977 536.681 278.938 535.25 C279.672 535.118 280.407 534.987 281.165 534.852 C291.014 533.076 300.629 531.017 310.148 527.883 C313 527 313 527 316 527 C314.714 534.472 312.694 541.517 310.25 548.688 C309.893 549.741 309.536 550.795 309.168 551.88 C302.494 571.39 293.682 587.818 282.363 605.004 C281.408 606.461 280.454 607.918 279.5 609.375 C279.018 610.108 278.536 610.841 278.039 611.596 C275.289 615.829 272.93 620.064 270.75 624.625 C265.143 635.432 254.882 643.764 245.688 651.531 C243.249 653.654 241.022 655.968 238.758 658.273 C237.023 659.977 235.228 661.551 233.375 663.125 C231.912 664.411 230.454 665.704 229 667 C228.753 667.215 228.753 667.215 227.505 668.303 C218.062 676.637 207.777 688.662 206.867 701.938 C206.87 702.618 206.872 703.299 206.875 704 C206.872 704.681 206.87 705.361 206.867 706.062 C207 708 207 708 208 711 C208.269 716.461 207.836 721.471 207 726.875 C205.375 737.967 205.966 745.954 209.754 756.48 C213.187 766.177 214.515 774.799 210.375 784.5 C210.102 785.153 209.829 785.806 209.548 786.479 C203.225 801.07 191.866 807.589 178.009 814.061 C176.161 814.925 174.324 815.811 172.488 816.699 C165.195 820.062 158.09 822.129 150.215 823.532 C145.34 824.454 141.966 825.835 138 829 C135.994 832.008 135.671 833.128 135.289 836.578 C135.235 837.032 135.235 837.032 134.961 839.326 C134.85 840.291 134.739 841.256 134.625 842.25 C131.08 870.478 131.08 870.478 124.266 876.543 C122.073 878.203 119.836 879.767 117.562 881.312 C115.929 882.458 114.296 883.603 112.664 884.75 C112.265 885.027 112.265 885.027 110.247 886.43 C102.844 891.603 95.804 897.054 89.156 903.172 C86.977 905.02 84.753 906.457 82.312 907.938 C78.076 910.62 76.098 913.658 73.523 917.883 C69.598 923.338 63.389 925.646 57 927 C49.383 928.067 41.671 928.495 34 929 C33.228 929.055 32.456 929.11 31.661 929.167 C21.031 929.849 11.974 927.904 1.973 924.632 C0.289 924.092 -1.417 923.621 -3.125 923.164 C-10.511 920.996 -15.367 916.667 -20.961 911.602 C-23.415 909.412 -25.849 907.893 -28.812 906.438 C-30.688 905.355 -30.688 905.355 -32 904 C-32.436 901.443 -32.307 899.181 -32.113 896.598 C-31.558 883.857 -43.491 871.084 -50.494 861.205 C-54 856.212 -54 856.212 -54 854 C-54.66 854 -55.32 854 -56 854 C-57.289 852.539 -57.289 852.539 -58.625 850.625 C-59.071 849.999 -59.517 849.372 -59.977 848.727 C-61 847 -61 847 -61 845 C-61.66 845 -62.32 845 -63 845 C-69.833 835.376 -77.109 824.314 -77.188 812.25 C-77.202 811.265 -77.216 810.28 -77.23 809.266 C-76.737 802.278 -74.52 796.41 -71.5 790.188 C-71.192 789.533 -70.884 788.879 -70.566 788.205 C-69.194 785.321 -67.775 782.663 -66 780 C-65.01 780 -64.02 780 -63 780 C-63 779.34 -63 778.68 -63 778 C-61.35 777.175 -61.35 777.175 -53 773 C-55.066 760.789 -59.075 749.6 -64.406 738.486 C-68.195 730.573 -71.421 722.645 -73.461 714.107 C-75.418 705.97 -77.327 701.008 -84.434 696.434 C-86.17 695.404 -87.916 694.391 -89.672 693.395 C-92.638 691.618 -94.758 689.626 -97 687 C-97.441 686.5 -97.882 686 -98.336 685.484 C-104.614 677.718 -104.387 667.635 -104.375 658.062 C-104.376 656.979 -104.378 655.896 -104.379 654.781 C-104.267 646.101 -102.996 638.063 -100.875 629.668 C-100 626 -100 626 -100 622 C-110.235 619.357 -120.342 617.333 -130.866 616.216 C-136.725 615.505 -140.72 614.28 -145 610 C-145.271 606.36 -145.446 602.728 -145.605 599.082 C-145.9 593.1 -145.9 593.1 -147 592 C-148.649 592.039 -150.296 592.158 -151.938 592.312 C-152.833 592.391 -153.729 592.47 -154.652 592.551 C-158 593 -158 593 -159.927 593.492 C-169.773 595.934 -179.994 595.091 -190.057 594.884 C-202.471 594.647 -213.394 594.586 -224.25 601.5 C-235.804 608.563 -248.285 612.518 -261.926 609.312 C-270.202 606.503 -277.644 602.313 -284.062 596.375 C-293.933 587.254 -305.683 580.046 -317.047 572.938 C-318.021 572.298 -318.996 571.659 -320 571 C-320.449 570.707 -320.449 570.707 -322.719 569.227 C-325.683 566.334 -326.643 563.255 -327.75 559.375 C-328.161 558.028 -328.572 556.682 -328.984 555.336 C-329.32 554.235 -329.655 553.134 -330 552 C-330.33 551.34 -330.66 550.68 -331 550 C-327.147 551.406 -323.879 553.212 -320.438 555.438 C-319.508 556.034 -318.579 556.631 -317.621 557.246 C-315.353 558.764 -313.163 560.336 -311 562 C-313.649 548.474 -313.649 548.474 -318 543 C-318.33 542.258 -318.66 541.515 -319 540.75 C-320.309 538.46 -321.627 538.101 -324 537 C-329.333 534.333 -334.667 531.667 -340 529 C-339.01 528.67 -338.02 528.34 -337 528 C-338.239 524.954 -339.493 521.914 -340.75 518.875 C-341.098 518.019 -341.446 517.163 -341.805 516.281 C-343.813 511.446 -346.027 507.299 -349 503 C-349 502.34 -349 501.68 -349 501 C-349.652 500.818 -350.305 500.636 -350.977 500.449 C-355.927 499.025 -360.465 497.506 -365 495 C-365.129 486.291 -362.431 479.691 -358.789 471.992 C-358.186 470.665 -357.59 469.334 -357 468 C-356.713 467.366 -356.426 466.732 -356.131 466.078 C-353.422 459.225 -353.428 452.134 -353.292 444.869 C-353.25 442.674 -353.187 440.481 -353.121 438.287 C-352.82 426.669 -352.82 426.669 -354 423 C-351.69 423.33 -349.38 423.66 -347 424 C-350.3 421.36 -353.6 418.72 -357 416 C-355.68 415.34 -354.36 414.68 -353 414 C-349.108 411.892 -347.329 410.751 -345.531 406.645 C-345.191 405.38 -344.851 404.115 -344.5 402.812 C-342.043 394.494 -338.699 388.446 -332.375 382.5 C-327.079 377.39 -325.389 371.294 -323.302 364.371 C-320.489 355.237 -317.069 350.272 -308.812 345.375 C-304.257 342.996 -299.509 341.121 -294.746 339.203 C-291.507 337.784 -288.872 336.041 -286 334 C-285.34 334 -284.68 334 -284 334 C-284 333.34 -284 332.68 -284 332 C-282.885 330.85 -281.758 329.71 -280.59 328.613 C-279 327 -279 327 -277.379 324.918 C-273.433 319.936 -269.659 317.077 -263.875 314.5 C-257.368 311.548 -254.059 308.47 -251 302 C-250.577 301.131 -250.154 300.262 -249.719 299.367 C-248.425 296.599 -247.205 293.808 -246 291 C-242.168 282.226 -238.856 274.807 -231 269 C-230.34 269 -229.68 269 -229 269 C-229 268.34 -229 267.68 -229 267 C-228.299 266.464 -227.598 265.927 -226.875 265.375 C-225 263 -225 263 -225.188 259.438 C-227.428 252.293 -233.487 246.846 -238.336 241.355 C-245.106 233.4 -245.106 233.4 -245.238 228.395 C-244.354 219.513 -243.3 209.815 -237 203 C-234 200.812 -234 200.812 -231 199 C-230.267 198.185 -229.533 197.371 -228.777 196.531 C-225.448 193.497 -222.914 192.752 -218.562 191.688 C-217.285 191.361 -216.008 191.035 -214.691 190.699 C-210.414 189.889 -206.717 189.211 -202.688 191.062 C-194.437 193.941 -185.32 189.152 -177.598 186.277 C-174 185 -174 185 -172 185 C-171.955 184.414 -171.911 183.829 -171.865 183.226 C-171.275 176.439 -170.085 169.899 -168.625 163.25 C-168.416 162.248 -168.207 161.247 -167.992 160.215 C-165.429 148.417 -165.429 148.417 -160.738 143.75 C-157.572 141.727 -154.837 140.886 -151.188 140 C-150.54 139.838 -149.893 139.675 -149.226 139.508 C-146.452 138.815 -143.669 138.158 -140.886 137.5 C-132.922 135.612 -125.324 133.757 -118 130 C-116.283 129.141 -114.565 128.283 -112.848 127.424 C-111.514 126.757 -110.181 126.09 -108.848 125.422 C-106.566 124.279 -104.283 123.139 -102 122 C-101.552 121.776 -101.552 121.776 -99.282 120.64 C-79.77 110.92 -79.77 110.92 -70.312 108.25 C-61.345 105.677 -51.775 101.664 -45.926 94.02 C-43.468 88.658 -44.329 82.879 -46.25 77.5 C-49.206 73.277 -49.206 73.277 -52 72 C-59.936 73.323 -67.845 78.945 -72.75 85.188 C-74.71 88.03 -76.382 90.95 -78 94 C-79.746 93.926 -79.746 93.926 -82 93 C-83.526 90.736 -84.808 88.593 -86.062 86.188 C-89.794 79.243 -89.794 79.243 -91.809 76.863 C-93 75 -93 75 -92.934 72.613 C-91.77 69.358 -90.118 66.964 -88.062 64.188 C-87.352 63.212 -86.642 62.236 -85.91 61.23 C-85.28 60.494 -84.649 59.758 -84 59 C-83.34 59 -82.68 59 -82 59 C-81.876 58.711 -81.876 58.711 -81.25 57.25 C-79.817 54.671 -78.216 52.939 -76 51 C-75.34 51 -74.68 51 -74 51 C-73.67 50.01 -73.34 49.02 -73 48 C-71.013 46.253 -69.047 44.647 -66.938 43.062 C-66.644 42.839 -66.644 42.839 -65.157 41.709 C-56.856 35.516 -49.476 32.279 -39 33 C-36.062 34 -36.062 34 -34 35 C-33.01 35 -32.02 35 -31 35 C-31.016 34.655 -31.016 34.655 -31.095 32.908 C-31.221 29.751 -31.298 26.596 -31.375 23.438 C-31.425 22.351 -31.476 21.265 -31.527 20.146 C-31.623 14.889 -31.681 11.039 -28.254 6.852 C-24.259 3.004 -20.514 1.538 -15 1 C-2.473 1.763 -2.473 1.763 2 4 C1.34 2.68 0.68 1.36 0 0 Z M120 7 C119.67 8.65 119.34 10.3 119 12 C119.33 12.165 119.33 12.165 121 13 C121 11.02 121 9.04 121 7 C120.67 7 120.34 7 120 7 Z M53 12 C53.33 12.99 53.66 13.98 54 15 C54 14.01 54 13.02 54 12 C53.67 12 53.34 12 53 12 Z M136 154 C134.862 155.538 133.765 157.107 132.688 158.688 C130.807 161.427 128.971 164.034 126.812 166.562 C124.614 169.518 123.47 172.561 122.223 176.012 C120.542 178.744 119.051 179.133 116 180 C106.195 181.883 99.277 178.811 90.8 174.202 C85.532 171.402 81.987 170.327 76 171 C73 173 73 173 72.319 174.786 C71.948 177.361 71.888 179.82 71.902 182.422 C71.904 182.934 71.904 182.934 71.912 185.527 C71.92 186.591 71.929 187.654 71.938 188.75 C71.94 189.289 71.94 189.289 71.951 192.02 C71.963 194.68 71.979 197.34 72 200 C58.778 206.591 58.778 206.591 51 207 C45.969 207.503 43.073 208.994 39 212 C40.723 219.108 47.644 223.259 53.5 226.938 C54.662 227.633 55.827 228.323 57 229 C56.299 229.681 55.597 230.361 54.875 231.062 C52.753 233.16 50.874 235.367 49 237.688 C46.51 240.568 44.897 242.38 41 243 C35.466 242.45 30.474 241.456 26 238 C24.855 235.328 24.855 235.328 24.188 232.25 C23.954 231.181 23.721 230.113 23.48 229.012 C22.943 225.644 23 222.404 23 219 C21.992 216.044 21.082 214.571 18.289 213.098 C11.475 210.552 4.179 209.868 -3 209 C-3.247 208.261 -3.495 207.523 -3.75 206.762 C-5.925 201.957 -9.671 198.905 -14 196 C-17.308 194.889 -20.55 194.442 -24 194 C-26.78 193.093 -28.637 192.281 -30.938 190.5 C-33.477 188.653 -36.005 187.885 -39 187 C-39 186.34 -39 185.68 -39 185 C-40.938 182.812 -40.938 182.812 -44 181 C-47.111 180.846 -49.964 181.353 -53 182 C-53.567 182.113 -53.567 182.113 -56.438 182.688 C-59 184 -59 184 -60.375 186.5 C-61.455 192.547 -62.118 197.764 -59.312 203.375 C-52.659 210.927 -42.352 215.433 -32.266 216.211 C-29.25 216.506 -26.803 216.835 -24 218 C-22.379 220.427 -21.624 222.581 -20.879 225.395 C-19.821 228.531 -18.164 230.525 -16 233 C-16.465 233.037 -16.465 233.037 -18.816 233.227 C-26.852 234.081 -31.491 234.966 -37 241 C-37.013 240.668 -37.013 240.668 -37.078 238.988 C-37.432 233.474 -37.702 229.857 -42 226 C-43.22 225.255 -44.45 224.527 -45.688 223.812 C-50.439 221.049 -53.615 217.191 -57.117 213.012 C-57.739 212.348 -58.36 211.684 -59 211 C-59.66 211 -60.32 211 -61 211 C-61 210.34 -61 209.68 -61 209 C-61.66 209 -62.32 209 -63 209 C-63.086 208.082 -63.173 207.164 -63.262 206.219 C-64.101 198.885 -64.908 192.62 -70 187 C-75.967 183.022 -83.601 183.218 -90.522 184.448 C-93.135 185.104 -95.686 185.861 -98.25 186.688 C-99.189 186.987 -100.129 187.287 -101.097 187.595 C-111.365 191.111 -120.268 196.639 -129.4 202.403 C-137.941 207.65 -144.138 211.156 -154.25 211.062 C-155.513 211.053 -156.777 211.044 -158.078 211.035 C-159.042 211.024 -160.007 211.012 -161 211 C-164.706 217.515 -165.379 223.215 -165.738 230.633 C-166.09 235.155 -167.124 238.891 -169 243 C-169.304 243.697 -169.608 244.395 -169.922 245.113 C-172.852 250.75 -176.777 252.896 -182.477 255.48 C-185 257 -185 257 -186.363 259.539 C-188.704 263.058 -191.64 263.395 -195.562 264.188 C-196.279 264.351 -196.996 264.514 -197.734 264.682 C-201.679 265.567 -205.642 266.301 -209.625 267 C-214.269 267.869 -217.619 269.619 -221 273 C-221.188 275.438 -221.188 275.438 -221 278 C-217.981 281.019 -214.958 281.147 -210.809 281.172 C-206.065 281.114 -201.668 280.336 -197.062 279.25 C-196.272 279.068 -195.481 278.886 -194.667 278.699 C-188.839 277.309 -183.487 275.399 -178 273 C-168.699 269.24 -159.471 266.225 -149.726 263.833 C-145.271 262.708 -141.352 261.377 -137.25 259.25 C-124.658 253.129 -109.728 256.309 -96.809 259.883 C-92.965 261.214 -90.601 262.268 -88 265.438 C-85.593 274.011 -84.747 282.458 -85.027 291.344 C-85 294.024 -84.609 296.395 -84 299 C-78.074 299.706 -72.293 300.095 -66.324 299.938 C-63.787 300.006 -61.472 300.44 -59 301 C-58.795 301.927 -58.59 302.854 -58.379 303.809 C-58.109 305.006 -57.84 306.204 -57.562 307.438 C-57.296 308.632 -57.029 309.827 -56.754 311.059 C-56 314 -56 314 -55 315 C-52.917 315.054 -50.834 315.093 -48.75 315.125 C-40.501 315.637 -34.928 318.742 -28 323 C-23.89 325.316 -20.366 327.016 -15.688 327.75 C-10.354 328.748 -6.754 331.804 -2.578 335.125 C0.9 337.655 3.482 339.202 7.812 338.625 C8.534 338.419 9.256 338.213 10 338 C11.731 333.365 12.541 328.869 13.07 323.977 C13.156 323.23 13.242 322.484 13.331 321.715 C13.602 319.353 13.863 316.989 14.125 314.625 C14.308 313.014 14.492 311.404 14.676 309.793 C15.124 305.863 15.564 301.932 16 298 C28.712 299.55 37.239 302.208 46.246 311.441 C50.404 315.305 54.272 317.125 59.875 317.75 C64.093 318.46 65.982 319.622 68.938 322.688 C71.223 324.895 72.336 325.92 75.52 326.305 C78.404 326.049 81.161 325.572 84 325 C85.008 324.857 86.016 324.714 87.055 324.566 C91.667 323.903 95.876 323.062 100.242 321.434 C105.245 319.718 109.762 319.724 115 319.938 C123.249 320.236 132.214 320.389 139 315 C142.239 310.614 143.096 306.051 144.125 300.812 C144.302 299.963 144.479 299.113 144.661 298.237 C145.537 293.901 146.167 289.744 146.312 285.312 C146.708 279.781 150.025 276.584 154 273 C154.843 272.389 155.686 271.778 156.555 271.148 C159.419 268.632 160.458 266.52 161.875 263 C162.09 262.484 162.09 262.484 163.18 259.875 C164.002 256.992 164.069 255.745 163 253 C154.128 254.437 146.074 255.88 138 260 C137.505 260.165 137.505 260.165 135 261 C134.67 261.66 134.34 262.32 134 263 C128.916 264.767 123.333 265.604 118 265 C117.091 264.388 116.182 263.775 115.246 263.145 C111.812 260.876 108.641 259.625 104.75 258.312 C98.079 256.04 98.079 256.04 96 255 C94.606 254.872 93.21 254.772 91.812 254.688 C87.822 254.295 85.402 253.2 82.027 250.961 C79.303 249.67 76.739 249.51 73.75 249.188 C70.617 248.73 70.617 248.73 68 248 C65.995 245.169 65.6 244.206 65 241 C64.872 240.592 64.872 240.592 64.227 238.527 C62.424 232.104 62.424 232.104 63.992 229.098 C65.375 227.5 65.375 227.5 68 225 C68 224.34 68 223.68 68 223 C68.307 222.921 68.307 222.921 69.863 222.52 C76.584 220.579 76.584 220.579 78.75 217.562 C79.162 216.717 79.575 215.871 80 215 C82.836 212.001 84.473 211.092 88.562 210.375 C92.541 210.539 95.243 212.082 98.688 214 C108.835 219.379 118.446 217.25 129.199 214.559 C139.523 213.041 147.698 216.531 157.125 220.5 C171.75 226.638 171.75 226.638 179 227 C179.66 226.01 180.32 225.02 181 224 C179.179 219.684 177.649 216.191 173.75 213.438 C171 211 171 211 170.438 207.5 C171.014 203.916 171.971 201.959 174 199 C174 198.34 174 197.68 174 197 C172.975 196.625 171.95 196.25 170.895 195.863 C169.534 195.347 168.173 194.83 166.812 194.312 C166.139 194.068 165.465 193.824 164.771 193.572 C159.615 191.585 155.564 189.306 153.088 184.071 C152.249 181.879 151.514 179.677 150.812 177.438 C150.321 175.935 149.828 174.434 149.332 172.934 C149.106 172.244 148.88 171.554 148.647 170.843 C147.929 168.797 147.059 166.893 146 165 C145.34 165 144.68 165 144 165 C143.773 164.299 143.546 163.597 143.312 162.875 C141.673 159.284 139.65 156.922 137 154 C136.67 154 136.34 154 136 154 Z M263 323 C260.394 326.908 260.261 328.342 261 333 C262.928 335.636 265.037 338.053 267.176 340.52 C269.013 343.017 269.5 344.105 269.625 347.125 C270.075 351.779 271.496 353.179 274.383 356.652 C276.998 360.448 278.274 364.699 279.727 369.047 C281.076 372.176 282.386 373.844 285 376 C290.542 377.663 297.267 377.648 303 377 C304.693 376.045 306.365 375.051 308 374 C310.5 374.25 310.5 374.25 313 375 C313.464 375.093 313.464 375.093 315.812 375.562 C316.534 375.707 317.256 375.851 318 376 C318.351 370.158 318.167 366.147 315 361 C314.34 361 313.68 361 313 361 C312.967 360.678 312.967 360.678 312.801 359.051 C311.366 351.002 307.599 346.892 301.736 341.593 C298.102 338.289 296.201 335.452 294 331 C292.02 329.715 292.02 329.715 289.812 328.938 C286.524 327.68 283.91 326.316 281.062 324.25 C275.768 320.791 268.893 320.859 263 323 Z " fill="#ffffff" transform="translate(2044,2335)"/><path d="M0 0 C0.33 0 0.66 0 1 0 C1.201 12.686 0.587 25.331 0 38 C-0.33 38 -0.66 38 -1 38 C-1.03 33.917 -1.047 29.833 -1.062 25.75 C-1.071 24.61 -1.079 23.471 -1.088 22.297 C-1.109 14.811 -0.753 7.448 0 0 Z " fill="#ffffff" transform="translate(1628,2509)"/><path d="M0 0 C3 1 3 1 4.035 2.617 C4.205 2.99 4.205 2.99 5.062 4.875 C7.068 9.113 9.192 13.255 11.415 17.381 C31.601 54.961 46.488 95.526 56.5 136.938 C56.678 137.66 56.856 138.383 57.04 139.128 C60.463 153.114 60.866 163.252 55.938 177 C55.533 178.17 55.128 179.339 54.711 180.544 C53.495 184.037 52.254 187.52 51 191 C50.633 192.021 50.265 193.043 49.887 194.095 C47.965 199.412 46.003 204.713 44 210 C43 207 43 207 43.125 204.312 C42.963 200.009 41.643 196.971 40 193 C39.287 193.13 38.574 193.26 37.84 193.395 C36.882 193.532 35.924 193.67 34.938 193.812 C33.998 193.963 33.058 194.114 32.09 194.27 C27.065 193.831 23.916 191.036 20.527 187.435 C19.127 185.765 17.805 184.058 16.5 182.312 C16.031 181.701 15.562 181.09 15.078 180.46 C11.728 176.064 8.521 171.575 5.438 166.988 C4.089 165.123 2.676 163.572 1 162 C0.67 162.66 0.67 162.66 -1 166 C-1.62 160.022 -2.239 154.044 -2.856 148.066 C-2.927 147.381 -2.997 146.695 -3.07 145.988 C-3.143 145.28 -3.217 144.571 -3.292 143.841 C-3.786 139.058 -4.285 134.275 -4.785 129.493 C-5.145 126.051 -5.503 122.61 -5.86 119.168 C-6.034 117.495 -6.21 115.821 -6.386 114.148 C-10.299 76.967 -12.922 35.798 0 0 Z " fill="#ffffff" transform="translate(2453,2551)"/><path d="M0 0 C0.66 0 1.32 0 2 0 C2 19.8 2 39.6 2 60 C1.67 60 1.34 60 1 60 C0.67 40.2 0.34 20.4 0 0 Z " fill="#ffffff" transform="translate(1544,2584)"/><path d="M0 0 C0.33 0 0.66 0 1 0 C1 33.66 1 67.32 1 102 C0.67 102 0.34 102 0 102 C0 68.34 0 34.68 0 0 Z " fill="#ffffff" transform="translate(1546,2644)"/><path d="M0 0 C1.648 3.297 -0.053 6.505 -1.062 9.875 C-1.292 10.644 -1.522 11.412 -1.759 12.204 C-4.81 22.037 -9.707 30.639 -14.896 39.491 C-17.148 43.371 -19.14 47.32 -21.054 51.378 C-26.164 62.127 -31.325 66.149 -41.595 71.758 C-46.867 74.72 -51.04 78.43 -55.414 82.605 C-63.503 90.096 -72.525 94.777 -83 98 C-80.797 95.7 -78.476 93.734 -75.938 91.812 C-75.245 91.283 -74.553 90.753 -73.84 90.207 C-72 89 -72 89 -70 89 C-70 88.34 -70 87.68 -70 87 C-68.461 85.449 -68.461 85.449 -66.375 83.688 C-65.649 83.069 -64.924 82.45 -64.176 81.812 C-62.313 80.261 -60.44 78.722 -58.562 77.188 C-56 75 -56 75 -55 73 C-54.34 73 -53.68 73 -53 73 C-53 72.34 -53 71.68 -53 71 C-52.34 71 -51.68 71 -51 71 C-50.763 70.442 -50.526 69.884 -50.281 69.309 C-48.702 66.464 -46.742 64.421 -44.5 62.062 C-38.898 56.034 -33.892 49.611 -29 43 C-28.506 42.336 -28.013 41.672 -27.504 40.988 C-17.709 27.773 -8.345 14.186 0 0 Z " fill="#ffffff" transform="translate(2408,2741)"/><path d="M0 0 C0.33 0 0.66 0 1 0 C1.755 9.791 2.149 19.493 2.133 29.316 C2.134 30.616 2.135 31.915 2.136 33.254 C2.137 35.978 2.135 38.701 2.13 41.425 C2.125 44.872 2.128 48.32 2.134 51.767 C2.138 55.117 2.135 58.467 2.133 61.816 C2.135 63.031 2.137 64.246 2.139 65.498 C2.117 73.712 1.683 81.816 1 90 C0.67 90 0.34 90 0 90 C0 60.3 0 30.6 0 0 Z " fill="#ffffff" transform="translate(2563,2762)"/><path d="M0 0 C0.33 0 0.66 0 1 0 C1.801 5.125 2.29 10.213 2.559 15.395 C2.601 16.208 2.643 17.021 2.687 17.859 C3.197 28.797 3.107 39.741 3.062 50.688 C3.057 52.865 3.053 55.043 3.049 57.221 C3.038 62.48 3.021 67.74 3 73 C2.34 72.67 1.68 72.34 1 72 C0.431 69.856 0.108 67.709 -0.242 65.52 C-1 63 -1 63 -2.906 60.352 C-5.667 55.932 -6.548 51.617 -7.625 46.562 C-8.032 44.73 -8.441 42.898 -8.852 41.066 C-9.043 40.198 -9.234 39.329 -9.431 38.434 C-9.932 36.289 -10.509 34.197 -11.148 32.09 C-12 29 -12 29 -12 25 C-12.66 25 -13.32 25 -14 25 C-14.33 25.99 -14.66 26.98 -15 28 C-15.33 27.34 -15.66 26.68 -16 26 C-14.594 23.383 -14.594 23.383 -12.5 20.125 C-11.758 18.957 -11.017 17.787 -10.277 16.617 C-9.898 16.02 -9.519 15.423 -9.128 14.808 C-6.765 11.021 -4.571 7.135 -2.348 3.266 C-1 1 -1 1 0 0 Z " fill="#ffffff" transform="translate(2520,2764)"/><path d="M0 0 C0.33 0 0.66 0 1 0 C1.697 15.01 2.151 29.973 2 45 C1.67 45 1.34 45 1 45 C-0.098 29.998 -0.109 15.037 0 0 Z " fill="#ffffff" transform="translate(1451,2794)"/><path d="M0 0 C4.623 3.29 8.402 6.523 9.391 12.316 C9.483 17.628 9.066 22.428 6.883 27.34 C7.543 27.34 8.203 27.34 8.883 27.34 C11.883 30.801 11.883 30.801 11.883 33.34 C12.478 33.576 13.074 33.812 13.687 34.056 C16.395 35.64 17.379 37.215 19.012 39.883 C19.572 40.792 20.132 41.702 20.709 42.639 C21.282 43.592 21.855 44.545 22.445 45.527 C23.022 46.461 23.599 47.395 24.193 48.357 C32.351 61.728 32.351 61.728 32.008 69.465 C31.858 73.319 32.075 76.575 32.883 80.34 C32.993 81.879 33.057 83.422 33.07 84.965 C33.084 85.72 33.099 86.476 33.113 87.254 C32.883 89.34 32.883 89.34 30.883 92.34 C30.473 96.439 30.862 99.55 32.32 103.34 C34.346 108.755 34.246 114.179 34.281 119.887 C35.046 124.274 36.36 125.68 39.883 128.34 C42.68 129.203 42.68 129.203 45.633 129.652 C52.397 131.075 56.225 134.388 60.883 139.34 C61.213 137.03 61.543 134.72 61.883 132.34 C62.213 132.34 62.543 132.34 62.883 132.34 C62.981 137.725 62.67 142.751 61.859 148.094 C61.753 148.798 61.647 149.503 61.537 150.229 C61.313 151.706 61.086 153.182 60.856 154.658 C60.508 156.899 60.171 159.142 59.836 161.385 C59.615 162.83 59.394 164.274 59.172 165.719 C58.973 167.014 58.774 168.309 58.569 169.643 C57.886 173.321 56.97 176.765 55.883 180.34 C63.454 173.228 68.498 165.717 72.621 156.16 C73.883 153.34 73.883 153.34 75.883 150.34 C76.958 152.992 77.977 155.624 78.883 158.34 C79.464 158.625 80.046 158.91 80.645 159.203 C87.986 162.931 92.492 171.635 94.949 179.141 C95.878 182.207 96.742 185.279 97.55 188.38 C98.935 193.643 100.101 197.269 103.883 201.34 C105.508 203.953 105.508 203.953 106.883 206.652 C107.357 207.535 107.832 208.418 108.32 209.328 C109.062 213.298 107.763 214.819 105.844 218.227 C104.234 221.768 104.629 225.096 104.883 228.902 C105.196 237.645 103.808 245.08 100.883 253.34 C100.553 253.67 100.223 254 99.883 254.34 C100.288 260.724 101.039 267.531 103.883 273.34 C104.557 273.661 105.231 273.982 105.926 274.312 C106.572 274.652 107.217 274.991 107.883 275.34 C107.963 276.128 108.043 276.916 108.126 277.728 C108.883 280.34 108.883 280.34 111.605 281.922 C112.708 282.328 113.81 282.734 114.945 283.152 C116.05 283.571 117.155 283.99 118.293 284.422 C118.72 284.573 118.72 284.573 120.883 285.34 C120.789 289.861 120.683 294.381 120.565 298.902 C120.527 300.44 120.492 301.979 120.461 303.517 C120.415 305.727 120.357 307.935 120.297 310.145 C120.285 310.834 120.274 311.524 120.262 312.234 C120.111 317.112 120.111 317.112 117.883 319.34 C116.397 324.951 115.741 330.543 115.883 336.34 C115.677 337.041 115.47 337.742 115.258 338.465 C114.752 340.992 115.577 342.189 116.883 344.34 C112.008 339.715 112.008 339.715 110.883 336.34 C110.223 336.34 109.563 336.34 108.883 336.34 C107.543 334.863 107.543 334.863 105.945 332.715 C103.393 329.332 100.813 325.98 98.172 322.665 C86.602 308.106 75.678 293.153 65.883 277.34 C65.412 276.582 64.941 275.823 64.455 275.042 C36.49 229.809 13.906 180.32 1.883 128.34 C1.617 127.224 1.35 126.108 1.076 124.958 C-9.01 82.622 -13.376 40.8 -13.117 -2.66 C-7.817 -4.098 -4.75 -2.889 0 0 Z " fill="#ffffff" transform="translate(1507.1171875,2804.66015625)"/><path d="M0 0 C1 1 1 1 1.5 3.188 C0.711 7.625 -2.461 9.456 -6 12 C-7.073 12.639 -8.145 13.279 -9.25 13.938 C-14.608 17.956 -15.517 24.658 -16.812 30.938 C-18.85 40.22 -21.737 49.475 -26 58 C-27.32 58 -28.64 58 -30 58 C-30.266 58.58 -30.531 59.16 -30.805 59.758 C-34.14 66.014 -39.462 70.668 -45.203 74.676 C-47 76 -47 76 -48.484 77.523 C-50.19 79.185 -51.918 80.165 -54 81.312 C-57.781 83.628 -59.696 85.622 -61 90 C-60.287 92.197 -59.615 93.385 -58 95 C-57.9 97.843 -57.861 100.657 -57.875 103.5 C-57.871 104.298 -57.867 105.096 -57.863 105.918 C-57.873 111.873 -57.873 111.873 -59 113 C-60.666 113.041 -62.334 113.043 -64 113 C-64.268 111.948 -64.536 110.896 -64.812 109.812 C-66.215 105.308 -67.833 102.206 -71.113 98.816 C-73.608 95.092 -73.261 92.974 -72.812 88.562 C-72.695 87.285 -72.578 86.008 -72.457 84.691 C-71.741 78.909 -71.13 74.936 -68 70 C-67.588 68.886 -67.175 67.773 -66.75 66.625 C-65.194 62.872 -62.822 60.567 -59.887 57.816 C-57.97 55.971 -56.276 54.035 -54.562 52 C-51.566 48.51 -48.304 45.57 -44.793 42.609 C-42.576 40.619 -40.84 38.335 -39 36 C-38.34 36 -37.68 36 -37 36 C-36.773 35.216 -36.546 34.432 -36.312 33.625 C-31.501 20.337 -23.446 8.42 -10.957 1.254 C-6.927 -0.455 -4.33 -0.294 0 0 Z " fill="#ffffff" transform="translate(2330,3096)"/><path d="M0 0 C0.797 0.03 1.593 0.061 2.414 0.092 C33.991 1.262 65.424 1.201 97 0 C97 0.33 97 0.66 97 1 C80.651 2.671 64.423 3.2 48 3.188 C47.101 3.188 46.201 3.189 45.274 3.19 C35.734 3.189 26.216 3.038 16.688 2.551 C16.308 2.532 16.308 2.532 14.39 2.434 C9.557 2.16 4.797 1.646 0 1 C0 0.67 0 0.34 0 0 Z " fill="#ffffff" transform="translate(1960,3319)"/><path d="M0 0 C11.372 -0.153 22.65 0.316 34 1 C34 1.33 34 1.66 34 2 C22.618 2.105 11.334 2.178 0 1 C0 0.67 0 0.34 0 0 Z " fill="#ffffff" transform="translate(1955,3361)"/>
  <!-- Bird, globe outline, talons (white layer) -->
  <path d="M0 0 C0.56 0.478 1.121 0.956 1.698 1.448 C2.797 2.387 3.896 3.327 4.994 4.268 C6.162 5.265 7.339 6.251 8.52 7.234 C18.646 15.795 28.142 25.424 36.34 35.844 C37.803 37.697 39.275 39.497 40.816 41.281 C50.989 53.087 59.537 66.088 67.438 79.5 C67.774 80.065 68.111 80.631 68.458 81.213 C85.203 109.469 96.855 139.618 105.5 171.25 C105.716 172.017 105.932 172.785 106.155 173.575 C107.396 178.293 107.827 181.813 105.5 186.312 C105.149 186.704 104.799 187.096 104.438 187.5 C103.778 187.5 103.117 187.5 102.438 187.5 C102.304 187.795 102.304 187.795 101.628 189.285 C100.417 191.538 99.145 193.09 97.383 194.934 C97.078 195.255 97.078 195.255 95.537 196.881 C94.885 197.56 94.234 198.238 93.562 198.938 C92.201 200.372 90.841 201.807 89.48 203.242 C88.8 203.957 88.12 204.672 87.419 205.409 C84.548 208.439 81.706 211.495 78.875 214.562 C78.386 215.092 77.896 215.622 77.392 216.168 C73.986 219.871 70.649 223.626 67.438 227.5 C65.117 225.411 63.956 223.782 63 220.816 C62.751 220.068 62.501 219.319 62.244 218.548 C61.978 217.728 61.712 216.907 61.438 216.062 C55.443 198.312 48.86 180.44 40.506 163.651 C39.182 160.986 37.882 158.309 36.578 155.633 C19.483 120.722 -0.217 86.053 -27.336 57.902 C-29.561 55.591 -31.679 53.224 -33.75 50.773 C-37.028 46.906 -40.689 43.76 -44.562 40.5 C-45.391 39.76 -46.22 39.02 -47.074 38.258 C-68.362 19.489 -96.661 4.574 -125.531 4.262 C-126.281 4.252 -127.03 4.242 -127.802 4.232 C-144.771 4.057 -161.014 4.282 -177.562 8.5 C-178.301 8.687 -179.04 8.874 -179.802 9.067 C-190.143 11.795 -199.923 15.907 -209.562 20.5 C-210.125 20.765 -210.688 21.03 -211.268 21.303 C-232.694 31.563 -250.868 48.546 -263.562 68.5 C-263.914 69.039 -264.265 69.578 -264.626 70.133 C-280.066 94.106 -286.012 122.306 -285.938 150.438 C-285.937 150.843 -285.937 150.843 -285.935 152.897 C-285.747 205.764 -261.388 252.899 -226.562 291.5 C-225.953 292.085 -225.343 292.67 -224.715 293.273 C-223.562 294.5 -223.562 294.5 -223.562 296.5 C-222.944 296.747 -222.325 296.995 -221.688 297.25 C-219.159 298.737 -218.844 299.937 -217.562 302.5 C-217.011 302.744 -216.459 302.987 -215.891 303.238 C-212.433 305.112 -210.025 307.874 -207.312 310.688 C-203.183 314.9 -199.021 318.943 -194.52 322.762 C-191.641 325.318 -188.968 328.073 -186.268 330.814 C-183.825 333.28 -181.332 335.626 -178.688 337.875 C-175.13 340.914 -171.848 344.174 -168.562 347.5 C-164.711 351.399 -160.798 355.108 -156.621 358.66 C-153.489 361.459 -150.575 364.467 -147.626 367.456 C-145.042 370.062 -142.423 372.558 -139.625 374.938 C-135.521 378.434 -131.781 382.254 -127.996 386.086 C-124.577 389.531 -121.052 392.778 -117.355 395.926 C-114.89 398.091 -112.623 400.43 -110.324 402.77 C-108.568 404.495 -106.749 406.092 -104.875 407.688 C-100.552 411.399 -96.578 415.429 -92.599 419.501 C-92.105 420.003 -91.611 420.506 -91.102 421.023 C-90.881 421.25 -90.881 421.25 -89.764 422.396 C-88.562 423.5 -88.562 423.5 -86.562 424.5 C-86.562 425.16 -86.562 425.82 -86.562 426.5 C-85.903 426.5 -85.242 426.5 -84.562 426.5 C-82.833 428.127 -81.199 429.782 -79.562 431.5 C-78.402 432.677 -77.239 433.851 -76.074 435.023 C-75.454 435.649 -74.834 436.274 -74.196 436.918 C-68.486 442.661 -62.779 448.302 -56.562 453.5 C-55.163 454.705 -53.768 455.913 -52.375 457.125 C-51.763 457.654 -51.15 458.182 -50.52 458.727 C-48.117 460.904 -45.838 463.192 -43.562 465.5 C-30.715 478.501 -30.715 478.501 -24.598 483.684 C-21.428 486.513 -18.469 489.551 -15.505 492.594 C-12.68 495.474 -9.72 497.979 -6.562 500.5 C-4.869 502.148 -3.207 503.805 -1.562 505.5 C-0.692 506.384 0.179 507.266 1.051 508.148 C1.49 508.593 1.929 509.037 2.381 509.494 C6.569 513.718 10.814 517.764 15.344 521.625 C18.484 524.437 21.41 527.451 24.369 530.451 C27.586 533.695 30.924 536.72 34.402 539.684 C37.343 542.309 40.085 545.12 42.845 547.932 C45.153 550.267 47.496 552.454 50.062 554.5 C50.846 555.16 51.63 555.82 52.438 556.5 C52.438 557.16 52.438 557.82 52.438 558.5 C52.73 558.63 52.73 558.63 54.208 559.287 C56.593 560.585 58.189 561.993 60.109 563.906 C60.773 564.568 61.437 565.229 62.121 565.91 C62.803 566.6 63.485 567.289 64.188 568 C64.885 568.69 65.582 569.379 66.301 570.09 C66.959 570.751 67.618 571.412 68.297 572.094 C68.9 572.699 69.503 573.304 70.124 573.928 C71.438 575.5 71.438 575.5 71.438 577.5 C72.097 577.5 72.758 577.5 73.438 577.5 C74.848 578.898 74.848 578.898 76.5 580.875 C79.217 584.075 81.981 587.213 84.812 590.312 C126.589 636.683 157.601 692.527 177.438 751.5 C177.762 752.45 178.087 753.399 178.421 754.377 C192.249 795.25 197.629 838.038 197.623 881.003 C197.623 883.653 197.63 886.304 197.643 888.954 C197.753 910.511 196.948 931.771 193.25 953.062 C193.146 953.674 193.042 954.285 192.935 954.914 C189.258 976.398 184.344 997.817 177.438 1018.5 C177.213 1019.176 176.988 1019.851 176.756 1020.547 C169.374 1042.31 158.707 1061.579 144.438 1079.5 C143.833 1080.273 143.228 1081.047 142.605 1081.844 C142.096 1082.473 141.587 1083.102 141.062 1083.75 C140.642 1084.271 140.222 1084.792 139.789 1085.328 C138.095 1086.797 136.62 1087.11 134.438 1087.5 C134.218 1077.27 134.471 1067.222 135.422 1057.031 C136.596 1043.332 136.836 1029.679 136.812 1015.938 C136.812 1015.325 136.812 1014.712 136.812 1014.08 C136.795 980.018 133.443 946.846 126.438 913.5 C126.225 912.484 126.012 911.469 125.793 910.422 C123.053 897.641 119.428 885.143 115.456 872.695 C114.755 870.495 114.059 868.294 113.372 866.09 C97.505 815.336 73.379 767.028 44.438 722.5 C44.007 721.838 43.577 721.176 43.134 720.494 C20.32 685.552 -5.482 651.819 -34.038 621.351 C-37.506 617.65 -40.89 613.895 -44.195 610.047 C-45.402 608.682 -46.695 607.396 -48 606.125 C-49.562 604.5 -49.562 604.5 -49.562 602.5 C-50.222 602.5 -50.883 602.5 -51.562 602.5 C-51.562 601.84 -51.562 601.18 -51.562 600.5 C-52.156 600.244 -52.75 599.988 -53.361 599.724 C-55.78 598.379 -57.036 597.041 -58.785 594.91 C-62.642 590.356 -66.771 586.144 -71 581.938 C-71.356 581.579 -71.356 581.579 -73.158 579.768 C-77.232 575.702 -81.411 571.832 -85.77 568.074 C-88.152 565.982 -90.351 563.772 -92.562 561.5 C-96.036 557.974 -99.604 554.629 -103.367 551.414 C-105.618 549.451 -107.805 547.431 -109.992 545.398 C-114.553 541.157 -119.081 537.151 -124.234 533.621 C-124.673 533.251 -125.111 532.881 -125.562 532.5 C-125.562 531.84 -125.562 531.18 -125.562 530.5 C-126.155 530.226 -126.747 529.952 -127.357 529.67 C-129.484 528.542 -131.054 527.369 -132.848 525.777 C-133.455 525.244 -134.062 524.71 -134.687 524.16 C-135.007 523.876 -135.007 523.876 -136.625 522.438 C-137.981 521.248 -139.338 520.059 -140.695 518.871 C-141.358 518.291 -142.021 517.711 -142.704 517.113 C-146.406 513.9 -150.213 510.819 -154.028 507.741 C-155.792 506.315 -157.548 504.88 -159.305 503.445 C-166.333 497.709 -173.402 492.035 -180.554 486.454 C-184.785 483.14 -188.92 479.727 -193.029 476.264 C-196.765 473.129 -200.586 470.116 -204.438 467.125 C-209.963 462.828 -215.303 458.352 -220.593 453.77 C-223.864 450.941 -227.167 448.18 -230.562 445.5 C-235.254 441.795 -239.777 437.911 -244.303 434.008 C-248.017 430.809 -251.762 427.658 -255.562 424.562 C-255.999 424.207 -255.999 424.207 -258.207 422.406 C-259.657 421.233 -261.112 420.065 -262.574 418.906 C-263.938 417.813 -265.258 416.664 -266.562 415.5 C-266.562 414.84 -266.562 414.18 -266.562 413.5 C-266.855 413.369 -266.855 413.369 -268.335 412.704 C-270.673 411.44 -272.292 410.07 -274.207 408.234 C-274.884 407.591 -275.562 406.948 -276.26 406.285 C-276.958 405.614 -277.656 404.942 -278.375 404.25 C-279.755 402.931 -281.137 401.613 -282.52 400.297 C-283.189 399.658 -283.859 399.019 -284.549 398.361 C-287.054 396.045 -289.663 393.875 -292.319 391.735 C-292.524 391.532 -292.524 391.532 -293.562 390.5 C-293.562 389.84 -293.562 389.18 -293.562 388.5 C-294.147 388.24 -294.732 387.981 -295.335 387.713 C-297.721 386.414 -299.296 385.01 -301.207 383.086 C-301.546 382.746 -301.546 382.746 -303.26 381.027 C-303.609 380.672 -303.609 380.672 -305.375 378.875 C-306.061 378.188 -306.748 377.501 -307.455 376.793 C-311.424 372.79 -315.212 368.678 -318.894 364.411 C-321.497 361.429 -324.222 358.566 -326.938 355.688 C-331.981 350.292 -336.774 344.793 -341.364 339.003 C-342.708 337.318 -344.068 335.647 -345.43 333.977 C-355.672 321.369 -364.977 308.287 -373.562 294.5 C-373.922 293.927 -374.281 293.355 -374.651 292.765 C-396.574 257.66 -412.676 218.262 -417.188 176.875 C-417.312 175.76 -417.437 174.645 -417.566 173.496 C-418.641 163.507 -419.27 153.54 -419.562 143.5 C-419.604 142.48 -419.645 141.461 -419.688 140.41 C-420.81 91.491 -404.071 43.021 -371.562 6.5 C-370.684 5.497 -369.805 4.495 -368.926 3.492 C-364.136 -1.925 -359.174 -6.926 -353.562 -11.5 C-353.046 -11.929 -352.529 -12.358 -351.997 -12.8 C-334.211 -27.55 -315.142 -39.769 -293.743 -48.592 C-292.115 -49.27 -290.495 -49.965 -288.878 -50.669 C-281.457 -53.864 -273.94 -56.388 -266.188 -58.625 C-265.593 -58.798 -264.999 -58.971 -264.387 -59.15 C-182.902 -82.861 -93.443 -65.223 0 0 Z " fill="#ffffff" transform="translate(2313.5625,661.5)"/><path d="M0 0 C1.487 1.131 2.994 2.23 4.51 3.321 C20.958 15.238 36.137 29.03 48.522 45.157 C48.912 45.655 49.302 46.153 49.704 46.666 C77.699 82.643 85.883 126.849 80.751 171.375 C79.675 179.748 77.854 188.011 76.118 196.266 C73.734 207.831 71.978 219.352 71.522 231.157 C71.496 231.703 71.496 231.703 71.362 234.466 C70.096 282.089 91.017 336.366 103.366 382.149 C103.824 383.847 104.28 385.545 104.735 387.244 C105.222 389.047 105.719 390.848 106.231 392.645 C107.225 396.252 107.608 398.586 106.522 402.157 C106.171 401.465 105.82 400.773 105.459 400.06 C97.464 384.334 89.11 368.933 80.078 353.777 C78.687 351.435 77.312 349.085 75.948 346.728 C63.83 325.815 50.64 305.625 37.159 285.575 C35.037 282.419 32.921 279.258 30.815 276.091 C30.367 275.417 29.919 274.743 29.458 274.049 C28.602 272.762 27.747 271.473 26.892 270.184 C18.586 257.689 18.586 257.689 15.522 256.157 C15.468 256.422 15.468 256.422 15.192 257.761 C13.909 263.786 12.271 269.647 10.459 275.532 C10.306 276.033 10.306 276.033 9.53 278.566 C6.93 286.981 4.166 295.337 1.356 303.684 C-1.111 311.02 -3.532 318.37 -5.919 325.731 C-6.222 326.664 -6.525 327.597 -6.837 328.558 C-8.053 332.309 -9.269 336.061 -10.481 339.814 C-13.867 350.303 -17.355 360.744 -21.028 371.136 C-23.828 379.083 -26.345 387.1 -28.8 395.159 C-29.123 396.194 -29.446 397.228 -29.779 398.294 C-30.059 399.209 -30.339 400.124 -30.628 401.066 C-31.478 403.157 -31.478 403.157 -33.478 404.157 C-33.457 403.491 -33.437 402.825 -33.416 402.139 C-32.303 366.126 -31.269 330.113 -30.353 294.095 C-30.331 293.223 -30.309 292.352 -30.286 291.454 C-30.138 285.656 -29.991 279.858 -29.845 274.06 C-29.826 273.305 -29.807 272.551 -29.788 271.774 C-29.735 269.676 -29.682 267.579 -29.63 265.481 C-29.614 264.864 -29.599 264.247 -29.583 263.611 C-29.529 261.459 -29.478 259.31 -29.478 257.157 C-30.612 257.24 -31.747 257.322 -32.916 257.407 C-51.227 257.293 -69.826 248.604 -84.478 238.157 C-85.415 237.504 -86.352 236.85 -87.318 236.177 C-98.514 228.189 -108.695 218.732 -117.478 208.157 C-119.698 205.566 -121.932 202.987 -124.166 200.407 C-124.725 199.756 -125.285 199.106 -125.861 198.435 C-128.132 195.804 -130.379 193.254 -132.873 190.829 C-134.478 189.157 -134.478 189.157 -134.478 187.157 C-135.138 187.157 -135.798 187.157 -136.478 187.157 C-138.134 185.442 -138.134 185.442 -139.978 183.22 C-143.276 179.258 -143.276 179.258 -145.478 178.157 C-145.478 177.497 -145.478 176.837 -145.478 176.157 C-146.052 175.907 -146.625 175.657 -147.216 175.399 C-149.794 173.984 -151.551 172.326 -153.666 170.282 C-181.405 144.621 -216.293 132 -253.763 133.017 C-260.152 133.348 -266.296 134.563 -272.478 136.157 C-272.763 136.229 -272.763 136.229 -274.206 136.595 C-282.727 138.823 -290.665 142.152 -298.478 146.157 C-298.76 146.302 -298.76 146.302 -300.185 147.032 C-310.558 152.444 -320.545 159.081 -328.751 167.485 C-330.478 169.157 -330.478 169.157 -332.478 169.157 C-332.715 169.719 -332.952 170.281 -333.197 170.86 C-334.456 173.117 -335.898 174.77 -337.702 176.605 C-362.567 201.966 -368.754 238.843 -368.657 272.959 C-368.32 302.793 -364.505 333.933 -354.478 362.157 C-354.241 362.852 -354.004 363.547 -353.76 364.263 C-350.445 373.975 -346.274 383.105 -341.51 392.187 C-340.485 394.144 -339.477 396.109 -338.47 398.075 C-334.299 406.146 -329.711 413.733 -324.478 421.157 C-323.83 422.081 -323.181 423.006 -322.513 423.958 C-316.095 432.944 -309.156 441.459 -301.693 449.599 C-300.478 451.157 -300.478 451.157 -300.478 453.157 C-299.882 453.414 -299.287 453.67 -298.673 453.935 C-296.266 455.276 -295.072 456.582 -293.353 458.72 C-289.55 463.198 -285.364 467.046 -280.931 470.892 C-279.396 472.229 -277.876 473.583 -276.357 474.938 C-261.289 488.256 -244.883 499.149 -227.478 509.157 C-226.682 509.624 -225.886 510.09 -225.066 510.571 C-211.061 518.763 -196.517 525.161 -181.478 531.157 C-180.634 531.497 -179.79 531.838 -178.921 532.188 C-145.56 545.52 -109.992 552.658 -74.478 557.157 C-73.446 557.291 -72.415 557.426 -71.352 557.564 C-29.038 562.826 14.832 559.449 56.522 551.157 C57.578 550.953 58.634 550.749 59.722 550.538 C75.865 547.355 91.254 542.488 106.78 537.12 C107.537 536.859 108.294 536.598 109.074 536.33 C110.503 535.836 111.931 535.337 113.357 534.834 C116.221 533.84 118.465 533.157 121.522 533.157 C118.561 536.527 115.559 539.856 112.522 543.157 C112.115 543.601 111.709 544.044 111.29 544.501 C88.218 569.378 56.102 586.747 24.522 598.157 C23.674 598.465 22.827 598.773 21.953 599.09 C-50.833 625.183 -132.688 620.61 -224.494 582.071 C-250.406 569.602 -275.718 554.492 -297.97 536.2 C-299.873 534.65 -301.789 533.139 -303.736 531.646 C-311.049 526.023 -317.94 520.13 -324.638 513.786 C-327.146 511.424 -329.757 509.269 -332.478 507.157 C-331.728 509.532 -331.728 509.532 -330.478 512.157 C-330.169 512.311 -330.169 512.311 -328.603 513.091 C-326.122 514.336 -324.968 515.696 -323.228 517.845 C-320.107 521.561 -316.738 524.647 -312.982 527.712 C-312.734 527.95 -312.734 527.95 -311.478 529.157 C-311.478 529.817 -311.478 530.477 -311.478 531.157 C-310.946 531.367 -310.413 531.577 -309.865 531.794 C-306.52 533.704 -304.04 536.296 -301.291 538.97 C-293.503 546.365 -285.125 552.807 -276.478 559.157 C-275.87 559.607 -275.261 560.057 -274.634 560.52 C-231.172 592.547 -182.295 614.131 -129.478 625.157 C-128.793 625.306 -128.108 625.456 -127.402 625.609 C-122.782 626.614 -118.149 627.424 -113.478 628.157 C-112.662 628.294 -111.846 628.431 -111.005 628.572 C-75.371 634.315 -36.988 633.359 -1.478 627.157 C-0.936 627.064 -0.936 627.064 1.809 626.59 C79.915 612.641 154.755 573.545 213.186 520.274 C215.291 518.366 217.428 516.507 219.584 514.657 C223.49 511.276 227.068 507.606 230.639 503.88 C232.522 502.157 232.522 502.157 234.522 502.157 C233.605 525.135 226.418 547.075 215.522 567.157 C215.157 567.841 214.791 568.525 214.415 569.229 C206.936 583.183 197.939 595.261 187.522 607.157 C187.085 607.659 186.648 608.16 186.198 608.677 C147.034 653.368 91.066 682.854 34.522 699.157 C33.546 699.44 32.57 699.722 31.564 700.013 C18.349 703.773 5.149 706.787 -8.416 708.97 C-9.025 709.069 -9.635 709.168 -10.264 709.27 C-29.242 712.314 -48.074 713.566 -67.291 713.532 C-68.357 713.532 -69.424 713.532 -70.524 713.533 C-88.488 713.504 -105.801 712.294 -123.478 709.157 C-125.268 708.865 -127.059 708.574 -128.849 708.282 C-164.294 702.145 -200.279 688.505 -231.667 671.133 C-233.895 669.933 -236.166 668.844 -238.452 667.759 C-269.962 652.701 -300.916 630.691 -327.478 608.157 C-328.533 607.265 -329.587 606.373 -330.642 605.481 C-332.313 604.068 -333.983 602.653 -335.65 601.234 C-338.985 598.398 -342.368 595.637 -345.791 592.907 C-351.453 588.314 -356.723 583.328 -361.997 578.297 C-362.649 577.676 -363.302 577.055 -363.974 576.415 C-364.553 575.86 -365.133 575.304 -365.73 574.732 C-367.478 573.157 -367.478 573.157 -369.697 571.579 C-370.285 571.11 -370.872 570.64 -371.478 570.157 C-371.478 569.497 -371.478 568.837 -371.478 568.157 C-372.138 568.157 -372.798 568.157 -373.478 568.157 C-374.824 566.705 -375.97 565.148 -377.162 563.567 C-378.478 562.157 -378.478 562.157 -381.478 561.157 C-376.196 567.754 -370.768 574.148 -365.033 580.356 C-363.671 581.831 -362.34 583.319 -361.035 584.845 C-356.012 590.722 -350.61 596.178 -345.135 601.63 C-343.543 603.217 -341.957 604.809 -340.371 606.401 C-334.909 611.867 -329.38 617.163 -323.478 622.157 C-322.503 623.01 -321.529 623.864 -320.556 624.72 C-307.868 635.713 -294.271 645.605 -280.478 655.157 C-279.866 655.584 -279.254 656.011 -278.623 656.451 C-267.65 664.069 -256.177 670.722 -244.478 677.157 C-244.027 677.406 -244.027 677.406 -241.743 678.666 C-219.919 690.615 -197.15 700.486 -173.478 708.157 C-172.805 708.379 -172.132 708.601 -171.438 708.83 C-97.008 733.32 -17.658 737.21 132.92 688.694 C146.603 681.646 159.547 673.566 171.888 664.374 C172.968 663.569 174.052 662.77 175.14 661.976 C183.996 655.511 191.929 648.269 199.864 640.714 C202.035 638.676 204.269 636.729 206.522 634.782 C209.866 631.836 212.801 628.72 215.67 625.313 C216.97 623.8 218.313 622.323 219.686 620.876 C235.828 603.84 248.628 583.555 260.28 563.272 C261.127 561.829 261.999 560.4 262.891 558.984 C267.653 551.371 271.294 543.334 274.959 535.157 C275.126 534.788 275.126 534.788 275.966 532.922 C296.017 488.362 308.959 441.233 314.834 392.72 C314.875 392.385 314.875 392.385 315.081 390.694 C315.798 384.716 316.456 378.749 316.777 372.735 C316.816 372.006 316.855 371.276 316.896 370.525 C316.965 369.123 317.026 367.721 317.077 366.318 C317.236 362.952 317.495 360.846 319.522 358.157 C333.978 401.272 333.978 401.272 338.522 423.157 C338.825 424.53 339.128 425.902 339.432 427.274 C340.272 431.216 340.926 435.172 341.522 439.157 C341.59 439.595 341.59 439.595 341.932 441.811 C352.663 514.002 335.242 586.259 295.522 647.157 C295.203 647.646 294.885 648.135 294.556 648.639 C286.607 660.801 278.042 672.185 268.522 683.157 C267.858 683.923 267.194 684.689 266.51 685.478 C265.395 686.756 264.275 688.031 263.151 689.302 C261.957 690.662 260.78 692.036 259.612 693.419 C258.984 694.158 258.356 694.896 257.709 695.657 C257.146 696.328 256.583 696.998 256.002 697.688 C254.522 699.157 254.522 699.157 252.522 699.157 C252.418 699.429 252.418 699.429 251.893 700.802 C249.979 704.09 247.398 706.317 244.584 708.845 C243.999 709.377 243.413 709.908 242.81 710.456 C237.53 715.217 232.11 719.762 226.522 724.157 C225.925 724.632 225.327 725.108 224.712 725.597 C191.362 752.055 153.496 771.825 113.522 786.157 C112.564 786.506 111.605 786.855 110.618 787.214 C74.502 800.249 35.895 808.959 -2.478 811.157 C-2.925 811.185 -2.925 811.185 -5.188 811.324 C-20.943 812.26 -36.7 812.386 -52.478 812.157 C-53.382 812.145 -54.287 812.132 -55.219 812.119 C-83.43 811.592 -111.866 807.833 -139.478 802.157 C-140.006 802.05 -140.006 802.05 -142.678 801.51 C-171.188 795.647 -198.666 786.393 -225.478 775.157 C-226.4 774.772 -227.322 774.387 -228.272 773.99 C-241.825 768.267 -254.692 761.416 -267.478 754.157 C-268.264 753.712 -269.049 753.267 -269.859 752.808 C-283.417 745.083 -296.434 736.62 -308.948 727.292 C-310.687 726.002 -312.436 724.727 -314.185 723.45 C-323.697 716.463 -332.68 709.019 -341.478 701.157 C-342.217 700.506 -342.957 699.855 -343.719 699.184 C-350.065 693.553 -356.116 687.674 -362.102 681.664 C-363.671 680.089 -365.245 678.521 -366.82 676.952 C-375.457 668.322 -383.293 659.239 -390.935 649.718 C-391.48 649.042 -392.026 648.366 -392.587 647.669 C-392.83 647.367 -392.83 647.367 -394.055 645.84 C-395.453 644.186 -396.925 642.665 -398.478 641.157 C-392.811 650.43 -387.061 659.501 -380.478 668.157 C-380.091 668.669 -379.705 669.18 -379.307 669.707 C-371.067 680.594 -362.561 691.143 -353.251 701.138 C-351.181 703.366 -349.185 705.649 -347.201 707.954 C-343.175 712.573 -338.883 716.9 -334.541 721.22 C-333.781 721.983 -333.021 722.747 -332.238 723.534 C-327.481 728.283 -322.579 732.783 -317.478 737.157 C-316.43 738.083 -315.383 739.01 -314.337 739.938 C-294.698 757.197 -273.094 772.083 -250.478 785.157 C-249.814 785.546 -249.151 785.935 -248.467 786.335 C-235.556 793.868 -222.171 800.181 -208.478 806.157 C-207.651 806.521 -206.825 806.884 -205.973 807.258 C-161.637 826.53 -111.395 837.218 -63.115 837.36 C-62.782 837.362 -62.782 837.362 -61.099 837.369 C-57.561 837.384 -54.022 837.393 -50.484 837.397 C-47.639 837.402 -44.794 837.415 -41.949 837.438 C-15.694 837.646 10.259 836.009 36.209 831.845 C36.542 831.793 36.542 831.793 38.227 831.529 C106.453 820.821 175.637 798.148 232.72 758.406 C234.647 757.07 236.589 755.757 238.534 754.446 C247.107 748.648 255.426 742.605 263.522 736.157 C264.42 735.442 265.319 734.726 266.245 733.989 C268.536 732.137 270.806 730.265 273.064 728.372 C274.04 727.559 275.021 726.751 276.007 725.95 C285.944 717.863 294.972 708.895 304.022 699.845 C304.636 699.231 305.25 698.618 305.883 697.986 C312.31 691.559 318.699 685.146 324.522 678.157 C325.023 677.563 325.524 676.969 326.04 676.357 C345.587 653 362.266 628.069 376.522 601.157 C376.852 601.157 377.182 601.157 377.522 601.157 C376.978 609.184 375.772 616.92 374.084 624.782 C374.021 625.078 374.021 625.078 373.7 626.573 C368.298 651.469 360.201 675.619 350.522 699.157 C350.364 699.545 350.364 699.545 349.566 701.508 C335.061 736.95 313.157 771.702 286.901 799.603 C284.967 801.679 283.105 803.787 281.252 805.935 C277.425 810.325 273.392 814.48 269.272 818.595 C268.523 819.343 267.775 820.091 267.003 820.861 C262.272 825.54 257.48 829.901 252.237 834.001 C250.215 835.607 248.271 837.232 246.338 838.938 C237.518 846.724 228.24 853.538 218.522 860.157 C217.308 860.997 216.095 861.837 214.881 862.677 C174.204 890.581 128.892 910.495 81.647 924.22 C80.978 924.414 80.309 924.608 79.62 924.809 C73.622 926.542 67.709 928.223 61.522 929.157 C65.781 1030.25 65.781 1030.25 91.522 1054.157 C100.285 1061.952 110.132 1067.804 120.522 1073.157 C121.166 1073.489 121.809 1073.821 122.472 1074.164 C131.443 1078.722 140.675 1082.423 150.084 1085.97 C179.617 1097.114 208.206 1110.786 232.522 1131.157 C232.907 1131.475 232.907 1131.475 234.858 1133.083 C246.496 1142.993 255.142 1155.851 260.522 1170.157 C260.522 1171.147 260.522 1172.137 260.522 1173.157 C261.246 1173.274 261.97 1173.391 262.717 1173.511 C265.596 1174.174 267.792 1175.134 270.409 1176.493 C270.873 1176.734 270.873 1176.734 273.225 1177.953 C274.21 1178.474 275.195 1178.995 276.209 1179.532 C277.231 1180.07 278.252 1180.608 279.305 1181.163 C293.733 1188.815 307.444 1197.377 320.522 1207.157 C321.061 1207.558 321.601 1207.958 322.156 1208.371 C330.413 1214.522 338.252 1221.101 346.006 1227.871 C347.447 1229.093 348.925 1230.24 350.428 1231.384 C350.774 1231.676 350.774 1231.676 352.522 1233.157 C352.522 1233.817 352.522 1234.477 352.522 1235.157 C353.182 1235.157 353.842 1235.157 354.522 1235.157 C355.811 1236.181 355.811 1236.181 357.147 1237.532 C357.593 1237.973 358.039 1238.414 358.499 1238.868 C359.522 1240.157 359.522 1240.157 359.522 1242.157 C360.182 1242.157 360.842 1242.157 361.522 1242.157 C361.522 1242.817 361.522 1243.477 361.522 1244.157 C362.512 1244.487 363.502 1244.817 364.522 1245.157 C364.522 1245.817 364.522 1246.477 364.522 1247.157 C365.182 1247.157 365.842 1247.157 366.522 1247.157 C367.827 1248.415 367.827 1248.415 369.397 1250.282 C369.709 1250.651 369.709 1250.651 371.288 1252.517 C372.025 1253.388 372.762 1254.259 373.522 1255.157 C374.411 1256.164 375.301 1257.169 376.194 1258.173 C399.441 1284.49 418.052 1315.403 435.241 1345.904 C436.878 1348.784 438.573 1351.626 440.272 1354.47 C444.384 1361.527 447.977 1368.803 451.522 1376.157 C452.037 1377.218 452.552 1378.279 453.067 1379.339 C472.023 1418.471 490.262 1461.558 488.401 1505.911 C488.06 1515.003 489.565 1523.247 491.385 1532.151 C498.275 1566.161 500.676 1600.209 500.767 1634.845 C500.772 1636.678 500.78 1638.51 500.788 1640.343 C500.878 1663.025 499.836 1685.654 496.834 1708.157 C496.753 1708.775 496.672 1709.392 496.588 1710.028 C488.745 1768.838 471.034 1825.665 445.522 1879.157 C445.302 1879.619 445.302 1879.619 444.191 1881.957 C427.247 1917.345 405.682 1951.159 380.846 1981.529 C379.653 1982.997 378.475 1984.474 377.307 1985.962 C373.285 1991.075 369.077 1995.956 364.698 2000.767 C362.661 2003.005 360.646 2005.26 358.647 2007.532 C358.38 2007.835 358.38 2007.835 357.03 2009.368 C355.522 2011.157 355.522 2011.157 353.952 2013.384 C353.48 2013.969 353.008 2014.554 352.522 2015.157 C351.862 2015.157 351.202 2015.157 350.522 2015.157 C350.294 2015.71 350.066 2016.263 349.831 2016.832 C348.169 2019.785 345.971 2021.995 343.584 2024.36 C343.344 2024.602 343.344 2024.602 342.128 2025.823 C341.115 2026.837 340.099 2027.849 339.082 2028.858 C337.52 2030.409 335.97 2031.97 334.42 2033.532 C333.434 2034.517 332.447 2035.502 331.459 2036.485 C330.995 2036.954 330.53 2037.423 330.052 2037.906 C326.752 2041.157 326.752 2041.157 324.522 2041.157 C324.522 2041.817 324.522 2042.477 324.522 2043.157 C323.159 2044.532 323.159 2044.532 321.209 2046.157 C318.263 2048.657 315.372 2051.194 312.534 2053.815 C307.511 2058.45 302.343 2062.809 296.958 2067.022 C295.357 2068.288 293.775 2069.574 292.194 2070.864 C230.689 2120.914 156.425 2157.609 24.494 2186.76 C21.554 2187.153 18.618 2187.57 15.682 2187.989 C-58.348 2198.245 -136.851 2192.489 -305.478 2133.157 C-305.945 2132.921 -305.945 2132.921 -308.309 2131.728 C-320.292 2125.638 -332.013 2119.174 -343.478 2112.157 C-344.222 2111.703 -344.967 2111.248 -345.733 2110.78 C-370.715 2095.446 -394.064 2078.017 -416.478 2059.157 C-416.807 2058.881 -416.807 2058.881 -418.471 2057.485 C-426 2051.144 -433.236 2044.626 -440.092 2037.557 C-442.575 2035.005 -445.067 2032.635 -447.849 2030.407 C-448.717 2029.665 -449.584 2028.922 -450.478 2028.157 C-450.478 2027.497 -450.478 2026.837 -450.478 2026.157 C-451.138 2026.157 -451.798 2026.157 -452.478 2026.157 C-453.994 2024.618 -453.994 2024.618 -455.728 2022.532 C-458.472 2019.288 -461.309 2016.284 -464.412 2013.384 C-465.478 2012.157 -465.478 2012.157 -465.478 2010.157 C-466.138 2010.157 -466.798 2010.157 -467.478 2010.157 C-468.91 2008.564 -470.229 2006.97 -471.541 2005.282 C-474.533 2001.519 -477.589 1997.88 -480.853 1994.345 C-495.146 1978.595 -507.673 1960.883 -519.236 1943.067 C-520.567 1941.02 -521.911 1938.981 -523.255 1936.942 C-528.646 1928.733 -533.75 1920.43 -538.526 1911.85 C-539.49 1910.136 -540.474 1908.437 -541.466 1906.739 C-579.558 1841.453 -600.376 1766.829 -611.478 1623.157 C-611.465 1622.233 -611.453 1621.308 -611.44 1620.356 C-610.693 1577.666 -604.832 1533.344 -592.643 1492.37 C-589.286 1481.043 -587.727 1470.398 -586.916 1458.657 C-585.875 1443.648 -583.543 1429.697 -579.478 1415.157 C-579.324 1414.602 -579.17 1414.046 -579.012 1413.474 C-575.028 1399.098 -570.624 1384.856 -565.47 1370.853 C-564.705 1368.773 -563.953 1366.689 -563.207 1364.603 C-559.862 1355.351 -556.004 1346.457 -551.684 1337.62 C-550.665 1335.531 -549.664 1333.435 -548.664 1331.337 C-542.959 1319.507 -536.334 1308.24 -528.103 1297.97 C-527.648 1297.399 -527.193 1296.827 -526.724 1296.239 C-518.428 1286.009 -509.13 1276.111 -496.656 1271.204 C-488.404 1267.899 -484.591 1262.947 -479.624 1255.753 C-476.98 1252.07 -473.809 1248.818 -470.725 1245.505 C-469.336 1244.004 -467.967 1242.486 -466.599 1240.966 C-461.28 1235.087 -455.885 1229.608 -449.904 1224.399 C-447.26 1221.956 -444.911 1219.36 -442.541 1216.657 C-430.8 1203.436 -415.2 1193.532 -400.228 1184.345 C-399.476 1183.882 -398.724 1183.419 -397.949 1182.942 C-394.621 1180.928 -391.326 1179.026 -387.771 1177.442 C-379.31 1173.628 -375.95 1169.07 -371.583 1160.942 C-368.591 1155.385 -364.693 1150.839 -360.478 1146.157 C-359.743 1145.328 -359.008 1144.499 -358.251 1143.646 C-342.788 1127.173 -320.97 1116.436 -300.683 1107.171 C-298.684 1106.252 -296.698 1105.311 -294.716 1104.356 C-281.178 1097.854 -267.263 1092.048 -253.041 1087.22 C-246.023 1084.817 -239.179 1082.057 -232.353 1079.157 C-231.381 1078.754 -230.408 1078.35 -229.406 1077.935 C-221.038 1074.317 -215.058 1069.798 -209.978 1062.22 C-209.789 1061.941 -209.789 1061.941 -208.834 1060.529 C-185.54 1025.044 -180.777 972.771 -181.478 931.157 C-182.431 930.923 -183.383 930.688 -184.365 930.447 C-218.12 922.101 -250.549 912.077 -282.478 898.157 C-283.245 897.824 -284.012 897.491 -284.803 897.147 C-297.861 891.413 -310.175 884.345 -322.478 877.157 C-323.274 876.694 -324.069 876.232 -324.889 875.755 C-343.504 864.861 -361.199 852.507 -377.688 838.605 C-380.365 836.439 -383.167 834.448 -385.976 832.458 C-386.224 832.244 -386.224 832.244 -387.478 831.157 C-387.478 830.497 -387.478 829.837 -387.478 829.157 C-388.05 828.899 -388.623 828.642 -389.212 828.376 C-391.689 827.044 -393.612 825.507 -395.728 823.657 C-396.434 823.049 -397.141 822.44 -397.869 821.813 C-399.478 820.157 -399.478 820.157 -399.478 818.157 C-400.468 817.827 -401.458 817.497 -402.478 817.157 C-402.478 816.497 -402.478 815.837 -402.478 815.157 C-403.072 814.889 -403.666 814.62 -404.278 814.343 C-406.488 813.152 -407.924 811.955 -409.685 810.181 C-410.268 809.596 -410.851 809.012 -411.452 808.41 C-412.059 807.79 -412.665 807.171 -413.291 806.532 C-413.919 805.897 -414.547 805.262 -415.194 804.607 C-418.874 800.863 -422.462 797.07 -425.853 793.06 C-427.776 790.809 -429.784 788.647 -431.791 786.47 C-436.533 781.207 -440.816 775.656 -445.079 770.002 C-446.567 768.04 -448.071 766.092 -449.58 764.146 C-460.974 749.418 -471.556 734.423 -481.106 718.432 C-482.492 716.135 -483.906 713.857 -485.33 711.583 C-490.82 702.797 -495.834 693.954 -500.298 684.606 C-501.418 682.282 -502.557 679.969 -503.704 677.658 C-511.415 662.097 -518.304 646.403 -524.478 630.157 C-524.827 629.258 -525.175 628.359 -525.535 627.432 C-543.202 581.804 -552.537 533.578 -556.337 484.924 C-556.473 483.22 -556.62 481.518 -556.768 479.816 C-557.598 469.62 -557.721 459.445 -557.728 449.22 C-557.729 448.288 -557.729 447.357 -557.73 446.397 C-557.694 415.011 -554.731 384.083 -549.478 353.157 C-549.429 352.865 -549.429 352.865 -549.18 351.388 C-541.1 303.506 -526.653 255.714 -505.753 211.84 C-504.814 209.864 -503.883 207.884 -502.96 205.9 C-494.98 188.748 -486.328 172.319 -476.478 156.157 C-475.922 155.234 -475.367 154.312 -474.794 153.361 C-464.666 136.545 -453.62 120.576 -441.478 105.157 C-440.791 104.276 -440.104 103.394 -439.396 102.485 C-435.054 96.971 -430.472 91.73 -425.732 86.555 C-424.232 84.883 -422.775 83.177 -421.31 81.474 C-416.986 76.523 -412.379 71.861 -407.728 67.22 C-407.507 66.998 -407.507 66.998 -406.387 65.878 C-400.829 60.331 -395.248 54.97 -389.033 50.149 C-386.555 48.217 -384.185 46.201 -381.812 44.143 C-374.688 37.986 -367.255 32.46 -359.478 27.157 C-359.035 26.855 -359.035 26.855 -356.791 25.323 C-330.247 7.251 -302.55 -9.307 -272.478 -20.843 C-272.057 -21.006 -272.057 -21.006 -269.924 -21.833 C-186.127 -54.061 -91.246 -55.853 0 0 Z M-26.923 113.021 C-30.052 118.479 -30.477 124.037 -29.005 130.106 C-27.062 135.471 -23.397 138.4 -18.623 141.274 C-13.485 143.389 -7.344 142.756 -2.166 141.095 C1.84 138.207 5.298 134.605 7.522 130.157 C8.107 123.835 8.437 117.937 4.729 112.552 C1.307 108.599 -2.757 105.603 -7.958 104.751 C-16.053 104.471 -21.842 106.47 -26.923 113.021 Z M-120.478 939.157 C-122.758 944.776 -123.103 950.351 -123.548 956.36 C-123.591 956.91 -123.591 956.91 -123.81 959.691 C-124.085 963.262 -124.346 966.834 -124.603 970.407 C-124.693 971.633 -124.782 972.858 -124.872 974.083 C-125.951 988.951 -126.878 1003.807 -126.916 1018.72 C-126.921 1019.382 -126.927 1020.045 -126.933 1020.727 C-127.068 1042.685 -127.068 1042.685 -121.353 1049.095 C-120.029 1050.126 -120.029 1050.126 -118.478 1051.157 C-117.873 1051.621 -117.269 1052.085 -116.646 1052.563 C-96.392 1067.293 -68.174 1071.003 -43.904 1067.388 C-32.465 1065.341 -21.477 1060.871 -14.478 1051.157 C1.595 1024.249 -3.533 992.393 -6.978 962.845 C-7.096 961.814 -7.215 960.783 -7.337 959.72 C-8.054 953.769 -9.04 947.978 -10.478 942.157 C-13.935 941.204 -16.518 941.227 -20.103 941.595 C-53.283 944.328 -87.323 941.09 -120.478 939.157 Z M-130.478 1158.157 C-139.973 1169.443 -140.417 1181.974 -139.478 1196.157 C-137.684 1211.952 -132.549 1227.521 -126.478 1242.157 C-136.907 1239.687 -147.078 1230.92 -153.041 1222.157 C-153.425 1221.595 -153.809 1221.032 -154.205 1220.453 C-163.228 1206.743 -164.85 1192.173 -164.312 1176.06 C-164.303 1175.57 -164.303 1175.57 -164.255 1173.095 C-164.227 1172.217 -164.198 1171.339 -164.169 1170.435 C-164.478 1168.157 -164.478 1168.157 -165.82 1166.403 C-168.376 1164.483 -170.297 1164.28 -173.478 1164.157 C-180.965 1166.046 -186.448 1171.598 -190.978 1177.595 C-191.392 1178.136 -191.806 1178.678 -192.232 1179.236 C-196.957 1185.572 -201.091 1192.293 -205.291 1198.982 C-210.079 1206.592 -215.082 1213.967 -220.478 1221.157 C-221.116 1222.02 -221.754 1222.882 -222.412 1223.771 C-241.947 1249.236 -269.766 1262.782 -298.982 1274.331 C-310.996 1279.087 -322.217 1284.856 -333.478 1291.157 C-329.983 1287.612 -326.482 1284.075 -322.974 1280.543 C-321.786 1279.346 -320.6 1278.146 -319.416 1276.945 C-312.096 1269.519 -304.675 1262.605 -296.478 1256.157 C-295.381 1255.246 -294.287 1254.331 -293.201 1253.407 C-284.871 1246.362 -276.3 1239.75 -267.291 1233.595 C-247.998 1220.087 -235.376 1199.855 -229.478 1177.157 C-229.074 1174.826 -228.765 1172.507 -228.478 1170.157 C-269.299 1176.905 -317.881 1192.965 -343.287 1227.56 C-350.175 1237.232 -354.84 1246.902 -358.478 1258.157 C-358.655 1258.648 -358.655 1258.648 -359.552 1261.134 C-361.851 1268.64 -361.714 1276.242 -361.728 1284.032 C-361.73 1284.63 -361.733 1285.228 -361.735 1285.843 C-361.749 1295.321 -360.712 1304.214 -358.799 1313.49 C-357.605 1319.696 -357.577 1324.311 -360.916 1329.782 C-367.503 1338.519 -376.37 1344.363 -385.478 1350.157 C-385.478 1349.167 -385.478 1348.177 -385.478 1347.157 C-384.818 1347.157 -384.158 1347.157 -383.478 1347.157 C-379.972 1340.429 -377.078 1333.868 -375.541 1326.407 C-375.413 1325.819 -375.284 1325.23 -375.153 1324.624 C-373.543 1315.943 -375.915 1307.284 -377.916 1298.845 C-378.167 1297.783 -378.419 1296.722 -378.678 1295.628 C-381.947 1282.473 -386.685 1269.821 -391.478 1257.157 C-393.314 1256.962 -393.314 1256.962 -395.478 1257.157 C-396.859 1258.448 -396.859 1258.448 -398.107 1260.278 C-398.579 1260.957 -399.051 1261.636 -399.537 1262.336 C-399.785 1262.709 -399.785 1262.709 -401.041 1264.595 C-401.566 1265.365 -402.091 1266.135 -402.632 1266.928 C-404.261 1269.328 -405.87 1271.742 -407.478 1274.157 C-408.425 1275.549 -409.373 1276.941 -410.322 1278.333 C-429.065 1306.193 -436.087 1331.585 -436.981 1364.82 C-437.04 1367.022 -437.105 1369.224 -437.171 1371.427 C-437.371 1378.297 -437.525 1385.167 -437.568 1392.04 C-437.576 1393.15 -437.583 1394.26 -437.591 1395.404 C-437.478 1398.157 -437.478 1398.157 -436.478 1401.157 C-439.775 1398.207 -441.679 1395.26 -443.353 1391.22 C-443.605 1390.619 -443.857 1390.018 -444.116 1389.4 C-450.342 1373.955 -453.785 1357.346 -457.478 1341.157 C-458.468 1341.157 -459.458 1341.157 -460.478 1341.157 C-461.964 1343.077 -463.19 1344.891 -464.416 1346.97 C-464.592 1347.264 -464.592 1347.264 -465.486 1348.756 C-474.136 1363.595 -475.67 1379.924 -475.603 1396.782 C-475.607 1397.767 -475.611 1398.752 -475.615 1399.767 C-475.595 1414.709 -475.595 1414.709 -472.65 1418.528 C-471.851 1419.21 -471.051 1419.892 -470.228 1420.595 C-448.355 1440.557 -434.569 1470.003 -422.244 1496.337 C-420.155 1500.78 -417.981 1505.174 -415.775 1509.56 C-412.659 1515.756 -409.614 1521.983 -406.603 1528.231 C-405.754 1529.989 -404.905 1531.746 -404.056 1533.503 C-402.763 1536.18 -401.472 1538.858 -400.187 1541.538 C-383.203 1576.947 -383.203 1576.947 -366.478 1588.157 C-386.331 1585.613 -409.001 1565.425 -421.466 1550.829 C-425.082 1545.722 -427.715 1539.901 -430.413 1534.267 C-433.103 1528.686 -436.234 1523.431 -439.478 1518.157 C-439.964 1517.363 -440.45 1516.568 -440.951 1515.749 C-452.448 1497 -464.159 1478.38 -476.478 1460.157 C-477.138 1460.487 -477.798 1460.817 -478.478 1461.157 C-478.871 1462.683 -478.871 1462.683 -479.071 1464.692 C-479.149 1465.453 -479.227 1466.214 -479.308 1466.998 C-479.382 1467.841 -479.456 1468.683 -479.533 1469.552 C-479.615 1470.437 -479.698 1471.322 -479.783 1472.234 C-480.721 1482.929 -481.115 1493.649 -481.483 1504.376 C-481.603 1507.851 -481.733 1511.325 -481.865 1514.8 C-482.221 1524.472 -482.553 1534.142 -482.58 1543.821 C-482.583 1544.467 -482.586 1545.112 -482.589 1545.777 C-482.546 1557.658 -480.204 1568.922 -476.478 1580.157 C-476.283 1580.761 -476.087 1581.364 -475.886 1581.986 C-469.679 1600.829 -460.047 1617.858 -447.478 1633.157 C-446.843 1633.941 -446.207 1634.725 -445.552 1635.532 C-443.916 1637.469 -442.223 1639.318 -440.478 1641.157 C-439.706 1641.993 -438.934 1642.828 -438.138 1643.688 C-415.907 1667.209 -383.681 1682.127 -354.476 1695.23 C-350.244 1697.163 -346.595 1699.345 -342.915 1702.202 C-341.478 1703.157 -341.478 1703.157 -339.478 1703.157 C-339.231 1703.693 -338.983 1704.23 -338.728 1704.782 C-337.478 1707.157 -337.478 1707.157 -335.541 1709.595 C-332.239 1714.355 -331.573 1720.564 -330.478 1726.157 C-331.3 1725.577 -332.123 1724.997 -332.97 1724.399 C-336.452 1721.955 -339.959 1719.549 -343.478 1717.157 C-344.277 1716.612 -345.076 1716.067 -345.9 1715.505 C-362.207 1705.067 -382.363 1698.838 -401.041 1694.22 C-421.874 1688.965 -442.204 1679.413 -456.228 1662.782 C-458.763 1659.816 -460.523 1657.948 -464.478 1657.157 C-466.839 1657.029 -469.109 1657.064 -471.478 1657.157 C-468.413 1695.605 -442.467 1732.85 -420.478 1763.157 C-419.924 1763.926 -419.369 1764.694 -418.798 1765.486 C-411.15 1776.07 -403.236 1786.369 -394.906 1796.425 C-393.609 1797.998 -392.327 1799.581 -391.052 1801.173 C-386.272 1807.128 -381.23 1812.783 -376.041 1818.38 C-373.377 1821.254 -370.792 1824.191 -368.236 1827.161 C-366.904 1828.673 -365.539 1830.155 -364.158 1831.622 C-357.606 1838.588 -354.735 1843.698 -353.478 1853.157 C-363.25 1846.279 -371.905 1838.467 -380.478 1830.157 C-381.014 1829.638 -381.55 1829.118 -382.103 1828.583 C-395.19 1815.834 -395.19 1815.834 -400.041 1808.935 C-400.515 1808.348 -400.989 1807.762 -401.478 1807.157 C-402.138 1807.157 -402.798 1807.157 -403.478 1807.157 C-403.714 1806.602 -403.95 1806.046 -404.193 1805.474 C-405.77 1802.632 -407.821 1800.435 -410.041 1798.095 C-413.858 1793.984 -417.487 1789.79 -421.011 1785.425 C-423.949 1781.79 -426.95 1778.216 -429.978 1774.657 C-434.884 1768.881 -439.696 1763.036 -444.478 1757.157 C-445.977 1755.323 -447.477 1753.49 -448.978 1751.657 C-449.727 1750.742 -450.475 1749.827 -451.224 1748.911 C-452.736 1747.064 -454.249 1745.217 -455.763 1743.372 C-455.952 1743.142 -455.952 1743.142 -456.905 1741.979 C-457.656 1741.064 -458.407 1740.149 -459.16 1739.236 C-461.052 1736.933 -462.908 1734.612 -464.716 1732.243 C-465.076 1731.777 -465.435 1731.311 -465.806 1730.831 C-466.795 1729.546 -467.773 1728.252 -468.751 1726.958 C-469.036 1726.661 -469.036 1726.661 -470.478 1725.157 C-471.468 1725.157 -472.458 1725.157 -473.478 1725.157 C-474.594 1728.504 -474.753 1731.585 -474.908 1735.071 C-474.979 1736.478 -475.051 1737.886 -475.124 1739.293 C-475.142 1739.66 -475.142 1739.66 -475.236 1741.517 C-476.65 1768.832 -480.581 1791.497 -498.478 1813.157 C-499.138 1813.487 -499.798 1813.817 -500.478 1814.157 C-500.291 1813.423 -500.104 1812.688 -499.912 1811.931 C-497.628 1802.555 -496.195 1793.153 -494.916 1783.595 C-494.808 1782.801 -494.7 1782.007 -494.588 1781.189 C-492.195 1763.592 -490.219 1746.045 -489.566 1728.287 C-489.488 1726.394 -489.371 1724.508 -489.244 1722.618 C-488.363 1701.328 -495.287 1679.25 -499.942 1658.647 C-503.172 1644.339 -506.177 1630.005 -508.916 1615.595 C-509.077 1614.753 -509.238 1613.911 -509.404 1613.043 C-509.482 1612.634 -509.482 1612.634 -509.878 1610.563 C-510.013 1609.857 -510.148 1609.15 -510.287 1608.422 C-511.041 1604.338 -511.76 1600.248 -512.478 1596.157 C-512.613 1595.403 -512.748 1594.65 -512.888 1593.873 C-515.257 1580.452 -515.934 1567.392 -515.955 1553.782 C-515.969 1551.663 -515.984 1549.543 -516.001 1547.423 C-516.033 1542.963 -516.058 1538.502 -516.075 1534.042 C-516.101 1527.107 -516.147 1520.173 -516.197 1513.239 C-516.213 1510.921 -516.229 1508.603 -516.246 1506.285 C-516.25 1505.714 -516.25 1505.714 -516.271 1502.823 C-516.294 1499.383 -516.316 1495.942 -516.338 1492.501 C-516.452 1474.539 -516.677 1456.581 -517.006 1438.621 C-517.041 1436.72 -517.075 1434.819 -517.108 1432.919 C-517.226 1426.331 -517.348 1419.744 -517.478 1413.157 C-518.138 1413.157 -518.798 1413.157 -519.478 1413.157 C-531.397 1436.941 -540.348 1461.68 -548.454 1486.97 C-549.098 1488.974 -549.754 1490.975 -550.428 1492.97 C-553.394 1502.067 -552.47 1509.525 -550.853 1518.845 C-550.678 1519.881 -550.502 1520.917 -550.322 1521.984 C-549.006 1529.577 -547.471 1537.11 -545.866 1544.646 C-542.997 1558.121 -540.676 1571.573 -538.869 1585.237 C-538.532 1587.751 -538.166 1590.258 -537.791 1592.767 C-536.248 1603.92 -536.299 1615.107 -536.291 1626.345 C-536.289 1627.164 -536.288 1627.984 -536.287 1628.828 C-536.288 1631.202 -536.297 1633.576 -536.31 1635.95 C-536.311 1636.658 -536.312 1637.366 -536.314 1638.095 C-536.358 1642.844 -536.794 1647.459 -537.478 1652.157 C-537.595 1651.611 -537.713 1651.065 -537.834 1650.502 C-540.976 1636.08 -545.758 1622.438 -550.978 1608.657 C-551.301 1607.805 -551.623 1606.953 -551.955 1606.076 C-556.013 1595.39 -560.196 1584.755 -564.478 1574.157 C-565.138 1574.157 -565.798 1574.157 -566.478 1574.157 C-568.219 1585.594 -569.117 1596.981 -569.666 1608.532 C-569.709 1609.421 -569.752 1610.309 -569.797 1611.224 C-570.619 1628.591 -570.479 1645.805 -569.478 1663.157 C-569.416 1664.258 -569.354 1665.36 -569.29 1666.494 C-567.189 1701.388 -561.833 1736.456 -552.478 1770.157 C-552.208 1771.14 -551.938 1772.122 -551.66 1773.135 C-544.322 1799.562 -534.952 1825.238 -523.478 1850.157 C-523.018 1851.161 -522.558 1852.164 -522.084 1853.198 C-504.391 1891.562 -481.838 1927.031 -455.298 1959.856 C-453.004 1962.756 -450.84 1965.741 -448.705 1968.759 C-448.3 1969.22 -447.895 1969.682 -447.478 1970.157 C-446.818 1970.157 -446.158 1970.157 -445.478 1970.157 C-445.286 1970.83 -445.094 1971.503 -444.896 1972.196 C-442.902 1976.36 -439.981 1979.234 -436.791 1982.532 C-436.106 1983.249 -435.421 1983.966 -434.716 1984.704 C-432.316 1987.201 -429.9 1989.682 -427.478 1992.157 C-426.998 1992.648 -426.518 1993.139 -426.023 1993.645 C-422.913 1996.823 -419.793 1999.991 -416.662 2003.148 C-415.622 2004.196 -414.584 2005.246 -413.547 2006.297 C-412.084 2007.778 -410.614 2009.252 -409.142 2010.724 C-408.7 2011.173 -408.258 2011.622 -407.803 2012.085 C-404.707 2015.157 -404.707 2015.157 -402.478 2015.157 C-402.148 2016.147 -401.818 2017.137 -401.478 2018.157 C-400.087 2019.595 -400.087 2019.595 -398.228 2021.157 C-397.505 2021.77 -396.782 2022.382 -396.037 2023.013 C-395.192 2023.72 -394.348 2024.428 -393.478 2025.157 C-392.489 2026.006 -391.501 2026.857 -390.513 2027.708 C-356.246 2057.152 -317.878 2081.115 -277.478 2101.157 C-276.5 2101.643 -275.521 2102.129 -274.513 2102.629 C-239.104 2119.981 -201.007 2132.059 -162.478 2140.157 C-161.449 2140.379 -160.419 2140.6 -159.358 2140.828 C-141.442 2144.649 -123.451 2146.931 -105.262 2148.949 C-103.364 2149.171 -101.472 2149.422 -99.578 2149.673 C-95.323 2150.207 -91.073 2150.491 -86.791 2150.708 C-85.972 2150.75 -85.154 2150.792 -84.311 2150.835 C-74.702 2151.289 -65.096 2151.355 -55.478 2151.345 C-54.542 2151.344 -53.606 2151.344 -52.642 2151.344 C-37.158 2151.323 -21.888 2150.758 -6.478 2149.157 C-5.938 2149.104 -5.938 2149.104 -3.207 2148.833 C72.209 2141.246 144.104 2117.202 247.522 2053.157 C248.108 2052.735 248.693 2052.313 249.297 2051.877 C272.385 2035.138 293.699 2015.931 313.959 1995.907 C314.288 1995.585 314.288 1995.585 315.952 1993.955 C316.551 1993.356 317.15 1992.758 317.768 1992.142 C318.301 1991.613 318.834 1991.084 319.383 1990.539 C320.522 1989.157 320.522 1989.157 320.522 1987.157 C321.182 1987.157 321.842 1987.157 322.522 1987.157 C323.932 1985.759 323.932 1985.759 325.584 1983.782 C328.253 1980.635 330.975 1977.565 333.772 1974.532 C338.858 1968.894 343.513 1962.948 348.149 1956.938 C349.483 1955.208 350.822 1953.483 352.163 1951.759 C360.371 1941.177 368.243 1930.405 375.522 1919.157 C375.88 1918.606 376.237 1918.054 376.605 1917.486 C395.507 1888.162 411.538 1857.527 424.522 1825.157 C424.919 1824.176 425.315 1823.195 425.724 1822.184 C444.037 1776.51 453.652 1727.867 458.34 1679.045 C458.503 1677.357 458.675 1675.669 458.848 1673.981 C459.733 1664.332 459.673 1654.677 459.652 1644.994 C459.647 1642.059 459.652 1639.124 459.659 1636.188 C459.662 1627.003 459.548 1617.84 459.077 1608.665 C459.038 1607.906 458.999 1607.146 458.959 1606.364 C458.702 1601.913 458.212 1597.562 457.522 1593.157 C453.344 1596.747 451.137 1601.124 448.584 1605.907 C446.172 1610.381 443.772 1614.829 441.042 1619.118 C431.363 1634.386 421.474 1652.393 418.811 1670.505 C418.522 1672.157 418.522 1672.157 417.522 1673.157 C408.989 1654.607 415.9 1635.214 422.387 1617.175 C424.401 1611.821 426.703 1606.602 429.02 1601.374 C433.725 1590.639 437.527 1579.584 441.354 1568.513 C442.445 1565.362 443.575 1562.226 444.709 1559.091 C445.356 1557.259 446.002 1555.427 446.647 1553.595 C446.942 1552.794 447.238 1551.992 447.542 1551.167 C451.543 1539.537 448.922 1528.822 446.084 1517.282 C445.906 1516.541 445.727 1515.799 445.542 1515.035 C440.454 1493.988 433.946 1473.57 426.397 1453.282 C426.155 1452.629 425.913 1451.976 425.664 1451.303 C422.305 1442.284 418.506 1433.553 414.344 1424.877 C413.128 1422.334 411.94 1419.778 410.749 1417.224 C405.668 1406.443 400.356 1395.914 394.354 1385.617 C393.336 1383.831 392.409 1382.01 391.522 1380.157 C390.862 1380.157 390.202 1380.157 389.522 1380.157 C382.873 1397.628 380.849 1417.555 380.522 1436.157 C380.502 1437.121 380.481 1438.086 380.46 1439.079 C379.986 1464.774 382.521 1490.091 385.274 1515.606 C385.44 1517.14 385.604 1518.675 385.768 1520.21 C386.185 1524.099 386.617 1527.984 387.079 1531.868 C388.384 1543.069 388.923 1554.132 388.897 1565.407 C388.897 1566.275 388.897 1567.143 388.896 1568.037 C388.815 1602.14 385.2 1635.333 372.522 1667.157 C370.824 1671.424 369.132 1675.693 367.459 1679.97 C367.245 1680.518 367.03 1681.067 366.809 1681.632 C360.042 1699.03 355.315 1715.877 355.459 1734.595 C355.462 1735.151 355.462 1735.151 355.473 1737.968 C355.485 1740.698 355.501 1743.427 355.522 1746.157 C349.926 1743.626 346.721 1740.967 344.522 1735.157 C343.606 1731.791 342.978 1728.408 342.397 1724.97 C342.087 1723.204 341.772 1721.44 341.452 1719.677 C341.32 1718.904 341.188 1718.132 341.053 1717.336 C340.497 1715.054 339.648 1713.211 338.522 1711.157 C335.918 1711.519 334.738 1711.935 332.881 1713.845 C325.491 1724.464 320.393 1736.271 316.022 1748.407 C315.767 1749.11 315.511 1749.812 315.248 1750.536 C313.983 1754.198 313.217 1757.227 313.522 1761.157 C310.771 1760.149 309.724 1759.57 308.413 1756.892 C304.394 1744.553 310.628 1732.334 316.119 1721.489 C321.986 1710.247 328.928 1699.628 335.78 1688.97 C361.34 1649.131 367.324 1610.466 362.647 1563.47 C362.569 1562.682 362.49 1561.894 362.409 1561.082 C361.95 1557.139 361.227 1553.79 359.522 1550.157 C356.061 1551.311 355.81 1551.858 354.034 1554.876 C353.578 1555.639 353.122 1556.402 352.652 1557.188 C352.176 1558.003 351.7 1558.818 351.209 1559.657 C350.217 1561.319 349.224 1562.981 348.229 1564.642 C347.757 1565.434 347.284 1566.226 346.798 1567.042 C344.97 1570.072 343.015 1573.001 341.022 1575.923 C339.849 1577.67 338.709 1579.426 337.584 1581.204 C326.252 1599.118 313.943 1616.319 299.811 1632.134 C299.283 1632.731 298.754 1633.328 298.209 1633.942 C297.739 1634.467 297.268 1634.992 296.784 1635.532 C295.403 1637.31 294.465 1639.119 293.522 1641.157 C292.862 1641.157 292.202 1641.157 291.522 1641.157 C291.522 1641.817 291.522 1642.477 291.522 1643.157 C290.862 1643.157 290.202 1643.157 289.522 1643.157 C288.627 1644.294 287.735 1645.433 286.862 1646.587 C283.744 1650.241 279.863 1653.707 275.776 1656.239 C275.362 1656.542 274.948 1656.845 274.522 1657.157 C274.522 1657.817 274.522 1658.477 274.522 1659.157 C273.967 1659.418 273.413 1659.679 272.842 1659.948 C270.234 1661.307 267.851 1662.863 265.409 1664.501 C264.922 1664.827 264.434 1665.152 263.933 1665.488 C262.357 1666.542 260.783 1667.6 259.209 1668.657 C258.128 1669.381 257.047 1670.105 255.965 1670.829 C253.817 1672.267 251.67 1673.706 249.523 1675.146 C245.528 1677.824 241.526 1680.491 237.522 1683.157 C236.334 1683.949 235.147 1684.74 233.959 1685.532 C233.155 1686.068 232.351 1686.605 231.522 1687.157 C232.116 1686.332 232.71 1685.507 233.323 1684.657 C237.881 1678.311 242.376 1671.93 246.772 1665.47 C252.535 1657.028 258.602 1648.82 264.697 1640.616 C267.774 1636.47 270.835 1632.314 273.897 1628.157 C274.193 1627.755 274.193 1627.755 275.693 1625.72 C279.261 1620.877 282.81 1616.021 286.338 1611.149 C288.145 1608.665 289.971 1606.196 291.799 1603.728 C315.123 1572.234 336.332 1540.375 346.834 1502.22 C346.994 1501.654 347.153 1501.088 347.317 1500.505 C349.864 1490.8 349.724 1480.746 349.709 1470.782 C349.709 1470.088 349.709 1469.395 349.709 1468.68 C349.659 1440.167 348.828 1411.378 344.522 1383.157 C341.817 1384.424 339.567 1385.789 337.272 1387.696 C336.67 1388.19 336.068 1388.684 335.448 1389.193 C334.812 1389.718 334.177 1390.242 333.522 1390.782 C327.084 1396.003 320.577 1400.8 313.522 1405.157 C312.988 1405.492 312.454 1405.827 311.903 1406.172 C297.928 1414.853 283.756 1419.696 267.522 1422.157 C267.976 1414.794 267.976 1414.794 269.948 1412.493 C270.57 1412.176 271.193 1411.859 271.834 1411.532 C272.555 1411.144 273.276 1410.756 274.018 1410.356 C275.801 1409.503 277.585 1408.651 279.37 1407.802 C286.594 1404.325 292.486 1400.428 298.522 1395.157 C299.356 1394.456 300.19 1393.755 301.049 1393.032 C307.341 1387.603 312.502 1381.734 317.522 1375.157 C317.831 1374.762 317.831 1374.762 319.393 1372.763 C331.438 1356.586 336.712 1337.871 334.088 1317.849 C332.801 1311.442 330.628 1305.462 328.209 1299.407 C327.938 1298.722 327.667 1298.037 327.387 1297.331 C323.124 1287.172 316.531 1279.7 308.78 1272.079 C307.252 1270.575 305.738 1269.057 304.225 1267.538 C303.257 1266.576 302.288 1265.614 301.319 1264.653 C301.093 1264.427 301.093 1264.427 299.949 1263.281 C296.753 1260.157 296.753 1260.157 294.522 1260.157 C294.192 1259.167 293.862 1258.177 293.522 1257.157 C291.78 1255.368 291.78 1255.368 289.647 1253.532 C288.948 1252.921 288.25 1252.31 287.53 1251.681 C285.522 1250.157 285.522 1250.157 282.522 1249.157 C282.522 1248.497 282.522 1247.837 282.522 1247.157 C280.826 1245.619 279.131 1244.194 277.334 1242.782 C276.852 1242.396 276.369 1242.009 275.872 1241.61 C274.904 1240.836 273.932 1240.065 272.958 1239.299 C272 1238.537 271.051 1237.763 270.113 1236.977 C266.731 1234.157 266.731 1234.157 264.522 1234.157 C256.995 1266.109 253.266 1293.303 270.636 1323.066 C272.697 1326.289 274.872 1329.389 277.522 1332.157 C278.182 1332.157 278.842 1332.157 279.522 1332.157 C285.802 1344.576 285.802 1344.576 286.522 1350.157 C270.509 1346.275 257.48 1333.682 248.584 1320.282 C248.243 1319.779 247.902 1319.275 247.551 1318.756 C240.547 1307.538 238.683 1295.517 237.834 1282.595 C237.681 1280.457 237.523 1278.32 237.355 1276.184 C237.253 1274.871 237.16 1273.558 237.078 1272.244 C236.805 1268.534 236.089 1265.532 234.522 1262.157 C233.862 1262.157 233.202 1262.157 232.522 1262.157 C227.587 1274.067 223.29 1286.162 219.084 1298.345 C218.449 1300.179 217.813 1302.013 217.176 1303.847 C216.228 1306.581 215.28 1309.315 214.333 1312.049 C212.467 1317.441 210.587 1322.827 208.696 1328.21 C205.944 1336.04 203.226 1343.873 200.709 1351.782 C200.567 1352.22 200.567 1352.22 199.844 1354.435 C197.978 1360.282 196.601 1366.116 195.522 1372.157 C194.862 1372.157 194.202 1372.157 193.522 1372.157 C193.176 1355.215 193.267 1338.859 196.522 1322.157 C196.715 1321.15 196.909 1320.143 197.108 1319.106 C199.927 1304.701 203.395 1290.486 207.084 1276.282 C207.475 1274.778 207.865 1273.275 208.255 1271.771 C208.445 1271.039 208.634 1270.307 208.83 1269.553 C209.729 1266.088 210.627 1262.623 211.522 1259.157 C211.598 1258.864 211.598 1258.864 211.981 1257.38 C219.872 1226.735 219.872 1226.735 213.241 1212.993 C197.339 1186.755 159.322 1174.424 131.392 1167.167 C111.68 1162.425 111.68 1162.425 102.522 1166.157 C100.055 1168.244 98.728 1169.733 98.256 1172.993 C98.84 1188.687 113.019 1204.785 123.221 1215.681 C125.034 1217.632 126.763 1219.61 128.491 1221.634 C133.291 1227.139 138.459 1232.28 143.621 1237.442 C145.353 1239.176 147.077 1240.919 148.801 1242.661 C149.902 1243.764 151.003 1244.867 152.104 1245.97 C152.619 1246.491 153.133 1247.013 153.663 1247.551 C157.293 1251.157 157.293 1251.157 159.522 1251.157 C159.852 1252.147 160.182 1253.137 160.522 1254.157 C162.159 1255.771 162.159 1255.771 164.209 1257.47 C167.435 1260.191 170.415 1263.009 173.295 1266.091 C174.522 1267.157 174.522 1267.157 176.522 1267.157 C176.522 1267.817 176.522 1268.477 176.522 1269.157 C178.053 1270.665 178.053 1270.665 180.022 1272.282 C181.189 1273.241 182.355 1274.199 183.522 1275.157 C176.234 1274.7 169.611 1273.321 162.647 1271.157 C162.154 1271.006 162.154 1271.006 159.66 1270.243 C150.202 1267.242 141.254 1263.306 132.333 1258.986 C130.522 1258.157 130.522 1258.157 127.522 1257.157 C120.959 1270.179 126.253 1288.179 130.522 1301.157 C130.696 1301.688 130.696 1301.688 131.578 1304.376 C135.133 1315.14 138.704 1325.88 143.522 1336.157 C134.819 1331.362 129.216 1322.739 123.647 1314.72 C123.044 1313.854 122.441 1312.987 121.82 1312.095 C116.588 1304.463 112.007 1296.585 107.703 1288.4 C106.508 1286.131 105.293 1283.874 104.073 1281.618 C95.942 1266.49 88.153 1251.099 81.897 1235.095 C75.75 1219.542 65.144 1206.948 53.913 1194.767 C51.802 1192.475 49.747 1190.139 47.709 1187.782 C45.085 1184.774 42.47 1181.853 39.522 1179.157 C38.862 1179.157 38.202 1179.157 37.522 1179.157 C36.862 1177.837 36.202 1176.517 35.522 1175.157 C34.532 1175.487 33.542 1175.817 32.522 1176.157 C32.375 1177.103 32.228 1178.05 32.077 1179.024 C26.972 1209.9 12.36 1239.347 -13.275 1258.216 C-15.659 1259.89 -18.056 1261.539 -20.478 1263.157 C-19.323 1260.813 -18.126 1258.501 -16.892 1256.196 C-6.066 1235.758 0.694 1205.136 -5.583 1182.239 C-9.489 1173.15 -15.526 1165.081 -23.728 1159.595 C-24.308 1159.202 -24.888 1158.809 -25.485 1158.405 C-41.455 1147.738 -57.613 1144.795 -76.498 1144.842 C-79.142 1144.845 -81.785 1144.821 -84.429 1144.796 C-100.553 1144.735 -118.61 1145.649 -130.478 1158.157 Z " fill="#ffffff" transform="translate(2063.47802734375,1170.8427734375)"/>
</svg>